<?xml version="1.0" standalone="no"?><!DOCTYPE svg PUBLIC "-//W3C//DTD SVG 1.1//EN" "http://www.w3.org/Graphics/SVG/1.1/DTD/svg11.dtd"><svg t="1751360499981" class="icon" viewBox="0 0 1024 1024" version="1.1" xmlns="http://www.w3.org/2000/svg" p-id="8248" xmlns:xlink="http://www.w3.org/1999/xlink" width="200" height="200"><path d="M869.3248 211.0464a235.81184 235.81184 0 0 0-78.6432-52.0704 239.80544 239.80544 0 0 0-89.7024-17.3568c-61.0304 0-122.0608 23.1424-168.3456 69.4272l-20.5312 20.5824-0.4096-0.4096L491.52 211.0464c-46.336-46.2848-107.3664-69.4272-168.3456-69.4272-61.0304 0-122.0608 23.1424-168.3968 69.4272-46.2848 46.336-69.4272 107.3664-69.4272 168.3968s23.1424 122.0608 69.4272 168.3456l319.0784 319.0272c10.3936 10.3936 23.9616 15.5648 37.5296 15.5648h1.3312c13.568 0 27.136-5.1712 37.5296-15.5648l319.0784-319.0272c92.5696-92.6208 92.5696-244.1216 0-336.7424zM511.3856 841.4208c-2.2528 0-5.632-0.6144-8.5504-3.5328l-298.496-298.496-20.5824-20.5824c-37.0176-37.0688-57.4464-86.528-57.4464-139.3664s20.4288-102.3488 57.4464-139.4176c37.0688-37.0176 86.5792-57.4464 139.4176-57.4464s102.2976 20.4288 139.3664 57.4464l19.968 19.968-82.2272 82.2272c-23.3472 23.3472-25.7024 61.44-3.584 85.9136a60.5696 60.5696 0 0 0 22.4768 15.7696c7.424 2.9696 15.3088 4.4544 23.1424 4.4544 15.7696 0 31.5392-5.9392 43.4688-17.92l77.6704-77.6704c3.2768-3.2768 8.6016-3.2768 11.8784 0l214.8352 214.8352-53.248 53.248-124.2624-124.3136c-8.0384-7.9872-20.992-7.9872-28.9792 0s-7.9872 20.9408 0 28.9792l124.3136 124.2624-42.7008 42.752-124.3136-124.3136c-8.0384-7.9872-20.992-7.9872-28.9792 0s-7.9872 20.9408 0 28.9792l124.3136 124.3136-42.7008 42.7008-124.3136-124.3136c-8.0384-7.9872-20.992-7.9872-28.9792 0s-7.9872 20.9408 0 28.9792l124.3136 124.3136-44.6464 44.6464c-2.6624 2.6624-5.6832 3.3792-7.936 3.4816-0.256 0.1024-0.4608 0.1024-0.6656 0.1024z m328.96-322.6112l-20.5312 20.5312-221.6448-221.6448-23.0912-23.0912c-3.328-3.328-8.7552-3.2768-12.032 0.1536-8.2944 8.704-22.5792 23.2448-22.5792 23.2448L456.8064 401.5616c-5.12 5.12-11.264 5.888-14.4896 5.888-3.1744 0-9.3184-0.768-14.4896-5.888-7.8336-7.8848-7.8336-21.1456 0-28.9792L511.488 288.9728l29.5424-28.416 20.5312-20.5312c37.0688-37.0176 86.5792-57.4464 139.4176-57.4464s102.3488 20.4288 139.3664 57.4464c37.0688 37.0688 57.4464 86.5792 57.4464 139.4176s-20.3776 102.2976-57.4464 139.3664z" fill="#666666" p-id="8249"></path></svg>