<?xml version="1.0" standalone="no"?><!DOCTYPE svg PUBLIC "-//W3C//DTD SVG 1.1//EN" "http://www.w3.org/Graphics/SVG/1.1/DTD/svg11.dtd"><svg height="1024" node-id="1" sillyvg="true" template-height="1024" template-width="1024" version="1.1" viewBox="0 0 1024 1024" width="1024" xmlns="http://www.w3.org/2000/svg" xmlns:xlink="http://www.w3.org/1999/xlink"><defs node-id="309"><linearGradient gradientUnits="objectBoundingBox" id="linear-gradient" node-id="3" spreadMethod="pad" x1="0.81620437" x2="0.5321332" y1="0.09802454" y2="0.36309093"><stop offset="0" stop-color="#cceafd"></stop><stop offset="1" stop-color="#e3f2ff"></stop></linearGradient><linearGradient gradientUnits="objectBoundingBox" id="linear-gradient-4" node-id="11" spreadMethod="pad" x1="0.36709192" x2="0.38209566" y1="0.23305835" y2="0.68817234"><stop offset="0" stop-color="#a4c5fd"></stop><stop offset="1" stop-color="#daeeff" stop-opacity="0"></stop></linearGradient><linearGradient gradientUnits="objectBoundingBox" id="linear-gradient-5" node-id="14" spreadMethod="pad" x1="0.8882224" x2="0.023005761" y1="0.2080521" y2="0.68717206"><stop offset="0" stop-color="#edf5ff"></stop><stop offset="1" stop-color="#aed9ff"></stop></linearGradient><linearGradient gradientUnits="objectBoundingBox" id="linearGradient1" node-id="329" spreadMethod="pad" x1="0.024" x2="1" y1="0.117" y2="0.772"><stop offset="0" stop-color="#dcf5ff"></stop><stop offset="1" stop-color="#91c2fa"></stop></linearGradient><linearGradient gradientUnits="objectBoundingBox" id="linear-gradient-7" node-id="27" spreadMethod="pad" x1="0.5" x2="0.5" y1="0" y2="1"><stop offset="0" stop-color="#86acf8"></stop><stop offset="0.245" stop-color="#78a1f9"></stop><stop offset="0.469" stop-color="#9bbaff"></stop><stop offset="1" stop-color="#2461ec"></stop></linearGradient><linearGradient gradientUnits="objectBoundingBox" id="linear-gradient-8" node-id="39" spreadMethod="pad" x1="0.5" x2="0.5" y1="0" y2="1"><stop offset="0" stop-color="#7ab2fa"></stop><stop offset="1" stop-color="#266cf4"></stop></linearGradient><linearGradient gradientUnits="objectBoundingBox" id="linearGradient2" node-id="352" spreadMethod="pad" x1="0.5" x2="0.5" y1="0" y2="1"><stop offset="0" stop-color="#c0d9fb"></stop><stop offset="1" stop-color="#84b3f7"></stop></linearGradient><linearGradient gradientUnits="objectBoundingBox" id="linearGradient3" node-id="359" spreadMethod="pad" x1="0.5" x2="0.5" y1="0" y2="1"><stop offset="0" stop-color="#c0d9fb"></stop><stop offset="1" stop-color="#84b3f7"></stop></linearGradient><linearGradient gradientUnits="objectBoundingBox" id="linear-gradient-9" node-id="56" spreadMethod="pad" x1="0.5" x2="0.5" y1="0" y2="1"><stop offset="0" stop-color="#c0d9fb"></stop><stop offset="1" stop-color="#84b3f7"></stop></linearGradient><linearGradient gradientUnits="objectBoundingBox" id="linear-gradient-12" node-id="87" spreadMethod="pad" x1="0.5" x2="0.5" y1="0" y2="1"><stop offset="0" stop-color="#acd0fa"></stop><stop offset="1" stop-color="#2165ec"></stop></linearGradient><linearGradient gradientUnits="objectBoundingBox" id="linear-gradient-13" node-id="104" spreadMethod="pad" x1="0.5" x2="0.5" y1="0" y2="1"><stop offset="0" stop-color="#6e94fb"></stop><stop offset="1" stop-color="#0029cb"></stop></linearGradient><linearGradient gradientUnits="objectBoundingBox" id="linear-gradient-14" node-id="120" spreadMethod="pad" x1="0.882" x2="0.108" y1="0.144" y2="0.932"><stop offset="0" stop-color="#cbd9fa"></stop><stop offset="0.437" stop-color="#7ea2ff"></stop><stop offset="0.572" stop-color="#769bfb"></stop><stop offset="0.721" stop-color="#7da0fc"></stop><stop offset="1" stop-color="#9fb9f9"></stop></linearGradient><linearGradient gradientUnits="objectBoundingBox" id="linearGradient4" node-id="396" spreadMethod="pad" x1="0.5" x2="0.5" y1="0" y2="1"><stop offset="0" stop-color="#c0d0fb"></stop><stop offset="1" stop-color="#84b2f7"></stop></linearGradient><linearGradient gradientUnits="objectBoundingBox" id="linearGradient5" node-id="403" spreadMethod="pad" x1="0.5" x2="0.5" y1="0" y2="1"><stop offset="0" stop-color="#c0d0fb"></stop><stop offset="1" stop-color="#84b2f7"></stop></linearGradient><linearGradient gradientUnits="objectBoundingBox" id="linear-gradient-15" node-id="133" spreadMethod="pad" x1="0.5" x2="0.5" y1="0" y2="1"><stop offset="0" stop-color="#c0d0fb"></stop><stop offset="1" stop-color="#84b2f7"></stop></linearGradient><linearGradient gradientUnits="objectBoundingBox" id="linear-gradient-18" node-id="157" spreadMethod="pad" x1="0.063" x2="1.038" y1="0.905" y2="-0.101"><stop offset="0" stop-color="#dae6fb"></stop><stop offset="1" stop-color="#acccff"></stop></linearGradient><linearGradient gradientUnits="objectBoundingBox" id="linear-gradient-19" node-id="166" spreadMethod="pad" x1="0.5" x2="0.5" y1="0" y2="1"><stop offset="0" stop-color="#b5d3ff"></stop><stop offset="1" stop-color="#0061ef"></stop></linearGradient><linearGradient gradientUnits="objectBoundingBox" id="linear-gradient-20" node-id="176" spreadMethod="pad" x1="0.12003005" x2="0.9352342" y1="0.8092026" y2="0.53613424"><stop offset="0" stop-color="#e0f2fb"></stop><stop offset="0.468" stop-color="#eef5fc"></stop><stop offset="1" stop-color="#cae3fc"></stop></linearGradient><linearGradient gradientUnits="objectBoundingBox" id="linear-gradient-21" node-id="182" spreadMethod="pad" x1="0.4401102" x2="0.44911245" y1="0.64316106" y2="0.94123566"><stop offset="0" stop-color="#e3f5ff" stop-opacity="0"></stop><stop offset="1" stop-color="#b5d9fc"></stop></linearGradient><linearGradient gradientUnits="objectBoundingBox" id="linear-gradient-22" node-id="185" spreadMethod="pad" x1="0.058014523" x2="0.90622693" y1="0.659165" y2="0.04401102"><stop offset="0" stop-color="#aed9ff"></stop><stop offset="1" stop-color="#edf5ff"></stop></linearGradient><linearGradient gradientUnits="objectBoundingBox" id="linear-gradient-6" node-id="17" spreadMethod="pad" x1="0.024" x2="1" y1="0.117" y2="0.772"><stop offset="0" stop-color="#dcf5ff"></stop><stop offset="1" stop-color="#91c2fa"></stop></linearGradient><linearGradient gradientUnits="objectBoundingBox" id="linear-gradient-24" node-id="195" spreadMethod="pad" x1="0.257" x2="0.73" y1="0.098" y2="0.932"><stop offset="0" stop-color="#72c4ff"></stop><stop offset="1" stop-color="#3416f8"></stop></linearGradient><radialGradient cx="0.5" cy="0.5" fx="0.5" fy="0.5" gradientUnits="objectBoundingBox" id="radial-gradient" node-id="205" r="0.537" rev="1" spreadMethod="pad"><stop offset="0" stop-color="#117fec" stop-opacity="0.341"></stop><stop offset="0.67" stop-color="#2b93ee" stop-opacity="0.129"></stop><stop offset="1" stop-color="#ffffff" stop-opacity="0"></stop></radialGradient><filter filterUnits="objectBoundingBox" height="147.15851" id="减去_19" node-id="20" width="703.7268" x="146.41513" y="209.00168"><feOffset color-interpolation-filters="linearRGB" dx="0" dy="0" in="SourceGraphic" result="result1"></feOffset><feGaussianBlur color-interpolation-filters="linearRGB" in="result1" result="blur" stdDeviation="3 3"></feGaussianBlur><feFlood color-interpolation-filters="linearRGB" flood-color="#ffffff" result="color"></feFlood><feComposite color-interpolation-filters="linearRGB" in="SourceGraphic" in2="blur" operator="out" result="result4"></feComposite><feComposite color-interpolation-filters="linearRGB" in="color" in2="result4" operator="in" result="result5"></feComposite><feComposite color-interpolation-filters="linearRGB" in="result5" in2="SourceGraphic" operator="in" result="result6"></feComposite></filter><filter filterUnits="objectBoundingBox" height="748.1365" id="矩形_2229" node-id="32" width="462.08636" x="235.0628" y="70.0953"><feOffset color-interpolation-filters="linearRGB" dx="0" dy="0" in="SourceGraphic" result="result1"></feOffset><feGaussianBlur color-interpolation-filters="linearRGB" in="result1" result="blur-2" stdDeviation="7.5 7.5"></feGaussianBlur><feFlood color-interpolation-filters="linearRGB" flood-color="#ffffff" flood-opacity="0.588" result="color-2"></feFlood><feComposite color-interpolation-filters="linearRGB" in="SourceGraphic" in2="blur-2" operator="out" result="result4"></feComposite><feComposite color-interpolation-filters="linearRGB" in="color-2" in2="result4" operator="in" result="result5"></feComposite><feComposite color-interpolation-filters="linearRGB" in="result5" in2="SourceGraphic" operator="in" result="result6"></feComposite></filter><filter filterUnits="objectBoundingBox" height="748.1365" id="矩形_2230" node-id="42" width="462.0864" x="213.8428" y="70.0953"><feOffset color-interpolation-filters="linearRGB" dx="0" dy="0" in="SourceGraphic" result="result1"></feOffset><feGaussianBlur color-interpolation-filters="linearRGB" in="result1" result="blur-3" stdDeviation="20 20"></feGaussianBlur><feFlood color-interpolation-filters="linearRGB" flood-color="#ffffff" flood-opacity="0.788" result="color-3"></feFlood><feComposite color-interpolation-filters="linearRGB" in="SourceGraphic" in2="blur-3" operator="out" result="result4"></feComposite><feComposite color-interpolation-filters="linearRGB" in="color-3" in2="result4" operator="in" result="result5"></feComposite><feComposite color-interpolation-filters="linearRGB" in="result5" in2="SourceGraphic" operator="in" result="result6"></feComposite></filter><filter filterUnits="objectBoundingBox" height="748.1365" id="矩形_2242" node-id="49" width="462.0864" x="213.8428" y="70.0953"><feOffset color-interpolation-filters="linearRGB" dx="-3" dy="0" in="SourceGraphic" result="result1"></feOffset><feGaussianBlur color-interpolation-filters="linearRGB" in="result1" result="blur-4" stdDeviation="3 3"></feGaussianBlur><feFlood color-interpolation-filters="linearRGB" flood-color="#ffffff" flood-opacity="0.4" result="color-4"></feFlood><feComposite color-interpolation-filters="linearRGB" in="SourceGraphic" in2="blur-4" operator="out" result="result4"></feComposite><feComposite color-interpolation-filters="linearRGB" in="color-4" in2="result4" operator="in" result="result5"></feComposite><feComposite color-interpolation-filters="linearRGB" in="result5" in2="SourceGraphic" operator="in" result="result6"></feComposite></filter><filter filterUnits="objectBoundingBox" height="541.42676" id="矩形_2231" node-id="59" width="386.8356" x="251.46371" y="149.4111"><feOffset color-interpolation-filters="linearRGB" dx="0" dy="0" in="SourceGraphic" result="result1"></feOffset><feGaussianBlur color-interpolation-filters="linearRGB" in="result1" result="blur-5" stdDeviation="6 6"></feGaussianBlur><feFlood color-interpolation-filters="linearRGB" flood-color="#ffffff" result="color-5"></feFlood><feComposite color-interpolation-filters="linearRGB" in="SourceGraphic" in2="blur-5" operator="out" result="result4"></feComposite><feComposite color-interpolation-filters="linearRGB" in="color-5" in2="result4" operator="in" result="result5"></feComposite><feComposite color-interpolation-filters="linearRGB" in="result5" in2="SourceGraphic" operator="in" result="result6"></feComposite></filter><filter filterUnits="objectBoundingBox" height="18.818405" id="矩形_2283" node-id="66" width="121.08722" x="394.9494" y="162.4518"><feOffset color-interpolation-filters="linearRGB" dx="0" dy="0" in="SourceGraphic" result="result1"></feOffset><feGaussianBlur color-interpolation-filters="linearRGB" in="result1" result="blur-6" stdDeviation="2 2"></feGaussianBlur><feFlood color-interpolation-filters="linearRGB" flood-color="#ffffff" flood-opacity="0.522" result="color-6"></feFlood><feComposite color-interpolation-filters="linearRGB" in="SourceGraphic" in2="blur-6" operator="out" result="result4"></feComposite><feComposite color-interpolation-filters="linearRGB" in="color-6" in2="result4" operator="in" result="result5"></feComposite><feComposite color-interpolation-filters="linearRGB" in="result5" in2="SourceGraphic" operator="in" result="result6"></feComposite></filter><filter filterUnits="objectBoundingBox" height="85.725586" id="矩形_2284" node-id="73" width="85.72562" x="412.6362" y="652.4162"><feOffset color-interpolation-filters="linearRGB" dx="0" dy="0" in="SourceGraphic" result="result1"></feOffset><feGaussianBlur color-interpolation-filters="linearRGB" in="result1" result="blur-7" stdDeviation="2 2"></feGaussianBlur><feFlood color-interpolation-filters="linearRGB" flood-color="#ffffff" flood-opacity="0.522" result="color-7"></feFlood><feComposite color-interpolation-filters="linearRGB" in="SourceGraphic" in2="blur-7" operator="out" result="result4"></feComposite><feComposite color-interpolation-filters="linearRGB" in="color-7" in2="result4" operator="in" result="result5"></feComposite><feComposite color-interpolation-filters="linearRGB" in="result5" in2="SourceGraphic" operator="in" result="result6"></feComposite></filter><filter filterUnits="objectBoundingBox" height="370.80002" id="矩形_2244" node-id="80" width="511.19998" x="372.53" y="261.1"><feOffset color-interpolation-filters="linearRGB" dx="0" dy="0" in="SourceGraphic" result="result1"></feOffset><feGaussianBlur color-interpolation-filters="linearRGB" in="result1" result="blur-8" stdDeviation="15 15"></feGaussianBlur><feFlood color-interpolation-filters="linearRGB" flood-color="#ffffff" result="color-8"></feFlood><feComposite color-interpolation-filters="linearRGB" in="SourceGraphic" in2="blur-8" operator="out" result="result4"></feComposite><feComposite color-interpolation-filters="linearRGB" in="color-8" in2="result4" operator="in" result="result5"></feComposite><feComposite color-interpolation-filters="linearRGB" in="result5" in2="SourceGraphic" operator="in" result="result6"></feComposite></filter><filter filterUnits="objectBoundingBox" height="370.80002" id="矩形_2245" node-id="90" width="511.19998" x="362.53" y="261.1"><feOffset color-interpolation-filters="linearRGB" dx="0" dy="0" in="SourceGraphic" result="result1"></feOffset><feGaussianBlur color-interpolation-filters="linearRGB" in="result1" result="blur-9" stdDeviation="10 10"></feGaussianBlur><feFlood color-interpolation-filters="linearRGB" flood-color="#ffffff" flood-opacity="0.278" result="color-9"></feFlood><feComposite color-interpolation-filters="linearRGB" in="SourceGraphic" in2="blur-9" operator="out" result="result4"></feComposite><feComposite color-interpolation-filters="linearRGB" in="color-9" in2="result4" operator="in" result="result5"></feComposite><feComposite color-interpolation-filters="linearRGB" in="result5" in2="SourceGraphic" operator="in" result="result6"></feComposite></filter><filter filterUnits="objectBoundingBox" height="370.80002" id="矩形_2251" node-id="97" width="511.19998" x="362.53" y="261.1"><feOffset color-interpolation-filters="linearRGB" dx="0" dy="0" in="SourceGraphic" result="result1"></feOffset><feGaussianBlur color-interpolation-filters="linearRGB" in="result1" result="blur-10" stdDeviation="5 5"></feGaussianBlur><feFlood color-interpolation-filters="linearRGB" flood-color="#ffffff" flood-opacity="0.812" result="color-10"></feFlood><feComposite color-interpolation-filters="linearRGB" in="SourceGraphic" in2="blur-10" operator="out" result="result4"></feComposite><feComposite color-interpolation-filters="linearRGB" in="color-10" in2="result4" operator="in" result="result5"></feComposite><feComposite color-interpolation-filters="linearRGB" in="result5" in2="SourceGraphic" operator="in" result="result6"></feComposite></filter><filter filterUnits="objectBoundingBox" height="162.413" id="减去_4" node-id="107" width="162.41296" x="443.604" y="296.587"><feOffset color-interpolation-filters="linearRGB" dx="0" dy="0" in="SourceGraphic" result="result1"></feOffset><feGaussianBlur color-interpolation-filters="linearRGB" in="result1" result="blur-11" stdDeviation="7.5 7.5"></feGaussianBlur><feFlood color-interpolation-filters="linearRGB" flood-color="#0238cb" flood-opacity="0.071" result="result3"></feFlood><feComposite color-interpolation-filters="linearRGB" in="result3" in2="blur-11" operator="in" result="result4"></feComposite><feComposite color-interpolation-filters="linearRGB" in="SourceGraphic" in2="result4" operator="over" result="result5"></feComposite></filter><filter filterUnits="objectBoundingBox" height="162.413" id="减去_4-2" node-id="113" width="162.41296" x="443.604" y="296.587"><feOffset color-interpolation-filters="linearRGB" dx="2" dy="2" in="SourceGraphic" result="result1"></feOffset><feGaussianBlur color-interpolation-filters="linearRGB" in="result1" result="blur-12" stdDeviation="3 3"></feGaussianBlur><feFlood color-interpolation-filters="linearRGB" flood-color="#ffffff" flood-opacity="0.471" result="color-11"></feFlood><feComposite color-interpolation-filters="linearRGB" in="SourceGraphic" in2="blur-12" operator="out" result="result4"></feComposite><feComposite color-interpolation-filters="linearRGB" in="color-11" in2="result4" operator="in" result="result5"></feComposite><feComposite color-interpolation-filters="linearRGB" in="result5" in2="SourceGraphic" operator="in" result="result6"></feComposite></filter><filter filterUnits="objectBoundingBox" height="95.68198" id="减去_6" node-id="126" width="90.433655" x="500.40387" y="348.57648"><feOffset color-interpolation-filters="linearRGB" dx="0" dy="3" in="SourceGraphic" result="result1"></feOffset><feGaussianBlur color-interpolation-filters="linearRGB" in="result1" result="blur-13" stdDeviation="6 6"></feGaussianBlur><feFlood color-interpolation-filters="linearRGB" flood-color="#ffffff" flood-opacity="0.761" result="color-12"></feFlood><feComposite color-interpolation-filters="linearRGB" in="SourceGraphic" in2="blur-13" operator="out" result="result4"></feComposite><feComposite color-interpolation-filters="linearRGB" in="color-12" in2="result4" operator="in" result="result5"></feComposite><feComposite color-interpolation-filters="linearRGB" in="result5" in2="SourceGraphic" operator="in" result="result6"></feComposite></filter><filter filterUnits="objectBoundingBox" height="20.018402" id="矩形_2285" node-id="136" width="86.28723" x="623.2294" y="324.35178"><feOffset color-interpolation-filters="linearRGB" dx="0" dy="0" in="SourceGraphic" result="result1"></feOffset><feGaussianBlur color-interpolation-filters="linearRGB" in="result1" result="blur-14" stdDeviation="2 2"></feGaussianBlur><feFlood color-interpolation-filters="linearRGB" flood-color="#ffffff" flood-opacity="0.522" result="color-13"></feFlood><feComposite color-interpolation-filters="linearRGB" in="SourceGraphic" in2="blur-14" operator="out" result="result4"></feComposite><feComposite color-interpolation-filters="linearRGB" in="color-13" in2="result4" operator="in" result="result5"></feComposite><feComposite color-interpolation-filters="linearRGB" in="result5" in2="SourceGraphic" operator="in" result="result6"></feComposite></filter><filter filterUnits="objectBoundingBox" height="20.018402" id="矩形_2287" node-id="143" width="157.08722" x="617.3294" y="367.7818"><feOffset color-interpolation-filters="linearRGB" dx="0" dy="0" in="SourceGraphic" result="result1"></feOffset><feGaussianBlur color-interpolation-filters="linearRGB" in="result1" result="blur-15" stdDeviation="2 2"></feGaussianBlur><feFlood color-interpolation-filters="linearRGB" flood-color="#ffffff" flood-opacity="0.522" result="color-14"></feFlood><feComposite color-interpolation-filters="linearRGB" in="SourceGraphic" in2="blur-15" operator="out" result="result4"></feComposite><feComposite color-interpolation-filters="linearRGB" in="color-14" in2="result4" operator="in" result="result5"></feComposite><feComposite color-interpolation-filters="linearRGB" in="result5" in2="SourceGraphic" operator="in" result="result6"></feComposite></filter><filter filterUnits="objectBoundingBox" height="20.018402" id="矩形_2288" node-id="150" width="191.8872" x="614.4294" y="412.6518"><feOffset color-interpolation-filters="linearRGB" dx="0" dy="0" in="SourceGraphic" result="result1"></feOffset><feGaussianBlur color-interpolation-filters="linearRGB" in="result1" result="blur-16" stdDeviation="2 2"></feGaussianBlur><feFlood color-interpolation-filters="linearRGB" flood-color="#ffffff" flood-opacity="0.522" result="color-15"></feFlood><feComposite color-interpolation-filters="linearRGB" in="SourceGraphic" in2="blur-16" operator="out" result="result4"></feComposite><feComposite color-interpolation-filters="linearRGB" in="color-15" in2="result4" operator="in" result="result5"></feComposite><feComposite color-interpolation-filters="linearRGB" in="result5" in2="SourceGraphic" operator="in" result="result6"></feComposite></filter><filter filterUnits="objectBoundingBox" height="141.20801" id="路径_1653" node-id="160" width="272.01904" x="476.213" y="448.755"><feOffset color-interpolation-filters="linearRGB" dx="0" dy="6" in="SourceGraphic" result="result1"></feOffset><feGaussianBlur color-interpolation-filters="linearRGB" in="result1" result="blur-17" stdDeviation="5 5"></feGaussianBlur><feFlood color-interpolation-filters="linearRGB" flood-color="#084ca5" flood-opacity="0.431" result="result3"></feFlood><feComposite color-interpolation-filters="linearRGB" in="result3" in2="blur-17" operator="in" result="result4"></feComposite><feComposite color-interpolation-filters="linearRGB" in="SourceGraphic" in2="result4" operator="over" result="result5"></feComposite></filter><filter filterUnits="objectBoundingBox" height="394.27548" id="路径_1743" node-id="169" width="458.59802" x="144.65068" y="398.13748"><feOffset color-interpolation-filters="linearRGB" dx="0" dy="0" in="SourceGraphic" result="result1"></feOffset><feGaussianBlur color-interpolation-filters="linearRGB" in="result1" result="blur-18" stdDeviation="6 6"></feGaussianBlur><feFlood color-interpolation-filters="linearRGB" flood-color="#ffffff" flood-opacity="0.569" result="color-16"></feFlood><feComposite color-interpolation-filters="linearRGB" in="SourceGraphic" in2="blur-18" operator="out" result="result4"></feComposite><feComposite color-interpolation-filters="linearRGB" in="color-16" in2="result4" operator="in" result="result5"></feComposite><feComposite color-interpolation-filters="linearRGB" in="result5" in2="SourceGraphic" operator="in" result="result6"></feComposite></filter><filter filterUnits="objectBoundingBox" height="348.32492" id="减去_17" node-id="188" width="987.421" x="-5.724968" y="192.98392"><feOffset color-interpolation-filters="linearRGB" dx="0" dy="0" in="SourceGraphic" result="result1"></feOffset><feGaussianBlur color-interpolation-filters="linearRGB" in="result1" result="blur-19" stdDeviation="3 3"></feGaussianBlur><feFlood color-interpolation-filters="linearRGB" flood-color="#ffffff" result="color-17"></feFlood><feComposite color-interpolation-filters="linearRGB" in="SourceGraphic" in2="blur-19" operator="out" result="result4"></feComposite><feComposite color-interpolation-filters="linearRGB" in="color-17" in2="result4" operator="in" result="result5"></feComposite><feComposite color-interpolation-filters="linearRGB" in="result5" in2="SourceGraphic" operator="in" result="result6"></feComposite></filter><filter filterUnits="objectBoundingBox" height="111.600006" id="椭圆_722" node-id="198" width="111.600006" x="111.7" y="307.59003"><feOffset color-interpolation-filters="linearRGB" dx="0" dy="0" in="SourceGraphic" result="result1"></feOffset><feGaussianBlur color-interpolation-filters="linearRGB" in="result1" result="blur-20" stdDeviation="10 10"></feGaussianBlur><feFlood color-interpolation-filters="linearRGB" flood-color="#ffffff" flood-opacity="0.82" result="color-18"></feFlood><feComposite color-interpolation-filters="linearRGB" in="SourceGraphic" in2="blur-20" operator="out" result="result4"></feComposite><feComposite color-interpolation-filters="linearRGB" in="color-18" in2="result4" operator="in" result="result5"></feComposite><feComposite color-interpolation-filters="linearRGB" in="result5" in2="SourceGraphic" operator="in" result="result6"></feComposite></filter><clipPath id="clip-手机理财" node-id="209"><path d="M 0.00 0.00 L 1024.00 0.00 L 1024.00 1024.00 L 0.00 1024.00 Z" fill="#000000" fill-rule="nonzero" node-id="745" stroke="none" target-height="1024" target-width="1024" target-x="0" target-y="0"></path></clipPath><clipPath id="clip-path" node-id="9"><path d="M 183.30 714.90 L 191.50 705.80 L 198.80 698.40 L 207.40 690.40 L 219.20 680.30 L 237.40 666.10 L 260.40 650.00 L 273.50 641.60 L 288.30 632.70 L 303.30 624.20 L 319.90 615.50 L 338.40 606.50 L 352.20 600.10 L 382.80 587.30 L 399.70 580.80 L 416.30 574.90 L 434.00 569.00 L 452.90 563.20 L 472.80 557.40 L 495.70 551.40 L 517.90 546.00 L 539.30 541.10 L 560.10 536.80 L 581.20 532.90 L 620.80 526.50 L 639.30 524.00 L 664.30 521.20 L 687.40 519.10 L 708.80 517.70 L 730.20 516.90 L 749.40 516.60 L 766.70 516.90 L 784.00 517.70 L 798.70 518.90 L 811.30 520.30 L 829.00 523.60 L 840.80 527.00 L 845.40 528.90 L 848.80 530.70 L 851.10 532.40 L 852.60 534.10 L 855.10 539.10 L 857.90 543.10 L 859.40 544.40 L 860.90 545.10 L 862.20 545.30 L 864.90 544.60 L 867.90 542.20 L 869.40 540.50 L 875.20 530.70 L 878.90 522.40 L 880.70 517.10 L 882.10 511.30 L 883.00 505.00 L 883.30 500.60 L 883.10 496.10 L 882.50 491.40 L 881.50 486.80 L 879.80 482.10 L 877.50 477.30 L 873.10 470.50 L 866.60 463.60 L 863.30 461.00 L 859.10 458.40 L 853.80 455.80 L 847.20 453.20 L 838.50 450.40 L 828.20 447.70 L 816.00 445.20 L 803.70 443.20 L 790.20 441.50 L 775.10 440.00 L 744.10 438.10 L 710.00 437.70 L 674.00 438.70 L 637.10 441.30 L 618.30 443.20 L 599.50 445.50 L 580.80 448.30 L 562.20 451.50 L 543.80 455.10 L 525.70 459.20 L 508.20 463.80 L 473.30 473.40 L 416.10 489.80 L 371.80 503.60 L 350.00 510.90 L 328.90 518.50 L 308.50 526.30 L 293.30 532.50 L 264.40 545.50 L 250.70 552.30 L 237.10 559.50 L 224.20 567.00 L 211.80 574.70 L 200.10 582.70 L 190.90 589.50 L 182.10 596.50 L 173.70 603.70 L 165.80 611.10 L 158.40 618.60 L 152.30 625.40 L 147.20 631.70 L 143.10 637.30 L 139.90 642.50 L 136.80 648.20 L 134.50 653.30 L 132.90 658.00 L 131.90 662.30 L 131.30 666.80 L 131.10 671.00 L 131.40 674.80 L 132.20 678.30 L 133.30 681.80 L 136.50 688.10 L 141.60 694.40 L 145.00 697.60 L 148.70 700.40 L 154.60 704.20 L 160.50 707.30 L 166.50 709.80 L 176.60 713.20 L 183.30 714.90 Z" fill="#000000" fill-rule="nonzero" id="路径_1747" node-id="10" stroke="none" target-height="277.2" target-width="752.19995" target-x="131.1" target-y="437.7"></path></clipPath><clipPath id="clip-path-2" node-id="180"><path d="M 78.10 697.90 L 82.70 711.70 L 91.20 734.70 L 98.80 753.10 L 103.00 762.40 L 112.30 780.30 L 117.30 788.60 L 122.30 795.90 L 125.90 800.30 L 130.40 804.80 L 135.70 809.20 L 142.00 813.70 L 149.50 818.10 L 156.60 821.80 L 164.70 825.40 L 173.90 828.90 L 184.20 832.20 L 195.70 835.40 L 206.60 837.90 L 218.60 840.20 L 231.70 842.30 L 246.10 844.00 L 261.80 845.40 L 276.60 846.40 L 292.70 846.90 L 310.00 847.10 L 328.60 846.80 L 348.60 846.00 L 370.20 844.60 L 392.90 842.60 L 416.60 840.00 L 440.20 836.90 L 464.40 833.10 L 489.30 828.70 L 514.00 823.90 L 539.00 818.50 L 564.20 812.60 L 589.40 806.10 L 614.30 799.20 L 639.20 791.80 L 663.90 783.80 L 688.10 775.50 L 711.70 766.70 L 729.40 759.70 L 746.60 752.50 L 779.60 737.60 L 799.20 728.00 L 817.00 718.80 L 833.10 710.10 L 847.60 701.80 L 862.40 692.80 L 875.70 684.30 L 887.40 676.30 L 897.80 668.60 L 908.40 660.40 L 917.50 652.60 L 925.50 645.30 L 932.30 638.50 L 939.00 631.00 L 944.60 624.00 L 949.20 617.50 L 952.90 611.40 L 956.30 604.90 L 958.80 598.70 L 960.70 593.10 L 961.80 587.80 L 962.40 582.50 L 962.70 570.40 L 962.10 560.90 L 960.80 550.90 L 957.00 530.60 L 954.60 520.60 L 949.40 502.10 L 942.30 481.00 L 939.30 473.40 L 938.80 472.80 L 937.10 472.80 L 935.60 473.60 L 932.70 475.80 L 928.50 479.90 L 919.00 490.80 L 908.10 504.50 L 896.90 519.40 L 869.30 558.20 L 767.30 622.10 L 554.60 706.60 L 310.90 742.80 L 157.70 729.80 Z" fill="#000000" fill-rule="nonzero" id="路径_1749" node-id="181" stroke="none" target-height="374.3" target-width="884.60004" target-x="78.1" target-y="472.8"></path></clipPath></defs><g clip-path="url(#clip-手机理财)" id="手机理财" node-id="211"><path d="M 0.00 0.00 L 1024.00 0.00 L 1024.00 1024.00 L 0.00 1024.00 Z" fill="#01275a" fill-rule="nonzero" node-id="756" stroke="none" target-height="1024" target-width="1024" target-x="0" target-y="0"></path><path d="M 185.80 726.90 L 193.80 717.20 L 201.10 709.40 L 209.60 701.00 L 221.20 690.30 L 239.30 675.30 L 250.60 666.60 L 262.20 658.40 L 275.20 649.60 L 289.90 640.30 L 304.90 631.40 L 321.50 622.40 L 339.80 613.00 L 353.60 606.40 L 384.10 593.20 L 401.00 586.60 L 417.60 580.50 L 435.30 574.50 L 454.10 568.70 L 474.10 562.90 L 497.00 556.90 L 519.20 551.40 L 561.50 542.10 L 582.70 538.00 L 622.60 531.30 L 641.20 528.60 L 666.40 525.50 L 689.80 523.20 L 711.40 521.50 L 733.00 520.30 L 752.50 519.80 L 770.00 519.70 L 787.50 520.20 L 802.50 521.10 L 815.30 522.30 L 833.30 525.20 L 845.30 528.30 L 850.00 530.20 L 853.40 531.90 L 855.80 533.60 L 857.30 535.20 L 859.80 540.20 L 861.60 542.90 L 863.50 545.00 L 865.80 546.80 L 868.10 548.10 L 870.40 549.00 L 874.10 549.70 L 877.60 549.90 L 884.20 549.00 L 888.90 547.60 L 890.70 546.80 L 893.60 540.00 L 897.40 528.90 L 899.20 521.80 L 900.70 514.40 L 901.60 506.30 L 901.90 500.80 L 901.70 495.30 L 901.20 489.60 L 900.10 484.10 L 898.50 478.60 L 896.30 473.30 L 894.20 469.40 L 891.70 465.70 L 888.80 462.10 L 885.30 458.60 L 875.80 454.80 L 868.30 452.60 L 856.60 449.60 L 841.50 446.50 L 825.40 443.70 L 806.60 441.00 L 787.00 438.60 L 765.30 436.60 L 743.00 435.10 L 719.20 434.10 L 686.80 433.60 L 653.30 434.40 L 636.50 435.30 L 619.60 436.60 L 602.70 438.30 L 586.00 440.40 L 569.50 443.00 L 553.00 446.00 L 537.00 449.50 L 521.40 453.50 L 472.60 467.20 L 422.00 482.20 L 370.90 498.70 L 345.60 507.50 L 321.00 516.60 L 289.00 529.40 L 258.70 542.80 L 230.70 556.70 L 221.40 562.10 L 212.70 567.60 L 204.70 573.40 L 196.90 579.50 L 182.70 591.60 L 154.80 617.60 L 146.40 624.70 L 141.50 629.60 L 137.50 634.30 L 134.40 638.70 L 131.90 642.80 L 129.90 647.40 L 128.40 651.80 L 127.50 655.90 L 127.20 660.00 L 127.30 664.10 L 127.80 668.10 L 128.60 672.00 L 129.90 675.90 L 132.20 680.80 L 134.90 685.50 L 138.10 690.20 L 145.50 698.60 L 156.00 708.00 L 168.50 717.00 L 173.90 720.40 L 185.80 726.90 Z" fill="url(#linear-gradient)" fill-rule="nonzero" group-id="1" id="路径_1744" node-id="213" stroke="none" target-height="293.30002" target-width="774.7" target-x="127.2" target-y="433.6"></path><g clip-path="url(#clip-path)" group-id="2" node-id="763"><path d="M 188.90 681.50 L 208.40 668.90 L 244.00 646.90 L 275.60 628.50 L 311.60 608.60 L 350.70 588.70 L 370.80 579.10 L 391.30 570.00 L 411.60 561.50 L 438.70 551.40 L 451.90 547.10 L 465.20 543.10 L 478.00 539.80 L 507.90 533.30 L 541.50 525.50 L 566.00 519.10 L 588.80 512.60 L 610.80 506.00 L 630.60 499.60 L 665.60 487.60 L 692.30 477.60 L 715.40 468.30 L 636.60 428.60 L 593.50 436.00 L 556.50 443.40 L 512.10 453.50 L 487.60 459.60 L 462.70 466.30 L 436.90 473.80 L 402.30 484.90 L 367.70 497.30 L 350.80 504.00 L 334.20 511.00 L 315.50 519.50 L 297.70 528.20 L 280.90 537.00 L 264.20 546.30 L 248.50 555.40 L 219.50 573.80 L 194.00 591.30 L 176.50 604.20 L 161.80 615.50 L 138.00 635.30 L 118.20 653.50 Z" fill="url(#linear-gradient-4)" fill-rule="nonzero" group-id="2,13" id="路径_1746" node-id="215" stroke="none" target-height="252.9" target-width="597.2" target-x="118.2" target-y="428.6"></path></g><path d="M 130.50 737.70 L 116.50 732.10 L 110.10 728.90 L 99.40 722.30 L 91.00 715.50 L 87.20 711.60 L 84.00 707.60 L 81.40 703.50 L 79.20 699.40 L 77.60 695.10 L 76.30 690.30 L 75.60 685.40 L 75.40 680.40 L 75.80 675.20 L 76.80 669.90 L 78.50 664.20 L 80.80 658.30 L 83.90 652.10 L 87.50 646.10 L 91.70 639.90 L 96.80 633.40 L 102.70 626.60 L 115.60 613.70 L 131.80 600.00 L 143.20 591.30 L 155.80 582.40 L 169.80 573.30 L 184.00 564.60 L 199.40 555.80 L 216.00 546.90 L 233.00 538.30 L 251.00 529.70 L 270.00 521.10 L 289.10 513.00 L 309.00 504.90 L 329.80 497.00 L 356.80 487.40 L 383.90 478.30 L 411.20 469.80 L 438.70 461.90 L 466.30 454.50 L 493.10 447.90 L 519.80 441.90 L 546.60 436.30 L 572.90 431.40 L 595.40 427.60 L 618.00 424.20 L 640.60 421.30 L 663.20 418.80 L 685.90 416.80 L 708.60 415.20 L 729.70 414.20 L 749.60 413.80 L 768.40 413.80 L 787.30 414.40 L 804.90 415.50 L 821.40 417.00 L 834.00 418.60 L 856.50 422.50 L 866.50 424.70 L 876.60 427.40 L 885.90 430.30 L 894.30 433.40 L 901.80 436.70 L 908.20 439.80 L 918.90 446.40 L 927.30 453.20 L 931.00 457.10 L 934.20 461.10 L 936.90 465.20 L 939.10 469.40 L 940.70 473.70 L 942.00 478.40 L 942.70 483.30 L 942.90 488.30 L 942.40 493.50 L 941.40 498.90 L 939.80 504.50 L 937.50 510.40 L 934.40 516.60 L 931.70 521.30 L 862.30 540.00 L 866.80 534.60 L 870.80 528.80 L 874.50 522.80 L 877.30 517.10 L 879.30 511.60 L 880.60 506.50 L 881.30 501.50 L 881.30 496.80 L 880.80 492.30 L 879.70 487.90 L 878.00 483.70 L 875.70 479.60 L 872.80 475.60 L 869.30 471.80 L 865.00 468.00 L 859.90 464.30 L 853.90 460.80 L 846.90 457.30 L 840.60 454.60 L 825.70 449.70 L 817.10 447.50 L 805.70 445.10 L 793.00 443.00 L 778.90 441.30 L 765.00 440.10 L 750.10 439.30 L 734.10 438.90 L 718.10 438.90 L 701.30 439.30 L 683.40 440.20 L 660.30 441.90 L 637.20 444.20 L 614.10 447.00 L 591.20 450.30 L 568.30 454.20 L 545.10 458.50 L 521.70 463.30 L 498.30 468.70 L 474.70 474.50 L 450.90 480.80 L 427.30 487.60 L 403.80 494.90 L 380.40 502.60 L 357.20 510.90 L 337.20 518.40 L 317.50 526.40 L 297.90 534.90 L 278.50 543.90 L 259.40 553.40 L 245.10 561.00 L 231.80 568.50 L 219.70 575.80 L 207.70 583.50 L 196.80 591.10 L 187.10 598.40 L 179.80 604.30 L 167.40 615.60 L 157.20 626.60 L 152.90 632.10 L 149.30 637.30 L 146.30 642.40 L 143.50 648.10 L 141.40 653.60 L 140.10 658.70 L 139.50 663.60 L 139.40 668.30 L 140.00 672.90 L 141.10 677.30 L 142.50 680.90 L 144.30 684.30 L 146.50 687.70 L 149.20 691.00 L 152.40 694.20 L 156.60 697.80 L 161.50 701.20 L 167.20 704.60 L 173.80 707.90 L 181.30 710.90 L 196.50 715.90 L 204.30 717.80 Z" fill="url(#linear-gradient-5)" fill-rule="nonzero" group-id="3" id="减去_15" node-id="216" stroke="none" target-height="323.90002" target-width="867.5" target-x="75.4" target-y="413.8"></path><path d="M 791.50 343.90 L 773.20 343.90 L 755.70 335.80 L 736.90 327.60 L 716.90 319.50 L 696.70 311.90 L 675.50 304.30 L 653.30 296.90 L 631.00 289.90 L 607.90 283.20 L 584.10 276.60 L 560.20 270.50 L 535.80 264.70 L 510.90 259.20 L 487.90 254.50 L 442.60 246.30 L 397.70 239.60 L 354.70 234.60 L 314.60 231.40 L 275.90 229.80 L 244.80 229.70 L 232.30 230.00 L 208.40 231.30 L 205.10 223.50 L 232.40 221.80 L 246.70 221.40 L 261.70 221.30 L 285.30 221.60 L 308.90 222.50 L 332.40 224.00 L 356.00 226.00 L 379.50 228.50 L 423.10 234.20 L 467.60 241.50 L 512.70 250.40 L 554.30 259.80 L 595.00 270.30 L 633.50 281.50 L 670.60 293.50 L 705.40 306.00 L 738.10 319.00 L 765.90 331.30 L 791.50 343.90 Z" fill="url(#linearGradient1)" fill-rule="nonzero" group-id="4,14" id="减去_19-2" node-id="218" stroke="none" target-height="122.59999" target-width="586.4" target-x="205.1" target-y="221.3"></path><path d="M 791.50 343.90 L 773.20 343.90 L 755.70 335.80 L 736.90 327.60 L 716.90 319.50 L 696.70 311.90 L 675.50 304.30 L 653.30 296.90 L 631.00 289.90 L 607.90 283.20 L 584.10 276.60 L 560.20 270.50 L 535.80 264.70 L 510.90 259.20 L 487.90 254.50 L 442.60 246.30 L 397.70 239.60 L 354.70 234.60 L 314.60 231.40 L 275.90 229.80 L 244.80 229.70 L 232.30 230.00 L 208.40 231.30 L 205.10 223.50 L 232.40 221.80 L 246.70 221.40 L 261.70 221.30 L 285.30 221.60 L 308.90 222.50 L 332.40 224.00 L 356.00 226.00 L 379.50 228.50 L 423.10 234.20 L 467.60 241.50 L 512.70 250.40 L 554.30 259.80 L 595.00 270.30 L 633.50 281.50 L 670.60 293.50 L 705.40 306.00 L 738.10 319.10 L 765.90 331.30 L 791.50 343.90 Z" fill="#ffffff" fill-rule="nonzero" filter="url(#减去_19)" group-id="4,15,45" id="减去_19-3" node-id="220" stroke="none" target-height="122.59999" target-width="586.4" target-x="205.1" target-y="221.3"></path><path d="M 323.60 132.40 L 608.60 132.40 L 613.80 132.70 L 618.80 133.50 L 623.50 134.70 L 628.10 136.40 L 632.50 138.50 L 636.60 141.00 L 640.40 143.80 L 644.00 147.10 L 647.20 150.60 L 650.10 154.50 L 652.60 158.60 L 654.70 163.00 L 656.40 167.50 L 657.60 172.30 L 658.40 177.20 L 658.60 182.40 L 658.60 705.90 L 658.40 711.10 L 657.60 716.00 L 656.40 720.80 L 654.70 725.30 L 652.60 729.80 L 650.10 733.90 L 647.20 737.70 L 644.00 741.20 L 640.40 744.50 L 636.60 747.30 L 632.50 749.80 L 628.10 752.00 L 623.50 753.60 L 618.80 754.90 L 613.80 755.60 L 608.60 755.90 L 323.60 755.90 L 318.40 755.60 L 313.40 754.90 L 308.70 753.60 L 304.10 752.00 L 299.70 749.80 L 295.60 747.30 L 291.80 744.50 L 288.20 741.20 L 285.00 737.70 L 282.10 733.90 L 279.60 729.80 L 277.50 725.30 L 275.80 720.80 L 274.60 716.00 L 273.80 711.10 L 273.60 705.90 L 273.60 182.40 L 273.80 177.20 L 274.60 172.30 L 275.80 167.50 L 277.50 163.00 L 279.60 158.60 L 282.10 154.50 L 285.00 150.60 L 288.20 147.10 L 291.80 143.80 L 295.60 141.00 L 299.70 138.50 L 304.10 136.40 L 308.70 134.70 L 313.40 133.50 L 318.40 132.70 L 323.60 132.40 Z" fill="url(#linear-gradient-7)" fill-rule="nonzero" group-id="5,16,46" id="矩形_2229-2" node-id="223" stroke="none" target-height="623.5" target-width="384.99997" target-x="273.6" target-y="132.4"></path><path d="M 323.60 132.40 L 608.60 132.40 L 613.80 132.70 L 618.80 133.50 L 623.50 134.70 L 628.10 136.40 L 632.50 138.50 L 636.60 141.00 L 640.40 143.80 L 644.00 147.10 L 647.20 150.60 L 650.10 154.50 L 652.60 158.60 L 654.70 163.00 L 656.40 167.50 L 657.60 172.30 L 658.40 177.20 L 658.60 182.40 L 658.60 705.90 L 658.40 711.10 L 657.60 716.00 L 656.40 720.80 L 654.70 725.30 L 652.60 729.80 L 650.10 733.90 L 647.20 737.70 L 644.00 741.20 L 640.40 744.50 L 636.60 747.30 L 632.50 749.80 L 628.10 752.00 L 623.50 753.60 L 618.80 754.90 L 613.80 755.60 L 608.60 755.90 L 323.60 755.90 L 318.40 755.60 L 313.40 754.90 L 308.70 753.60 L 304.10 752.00 L 299.70 749.80 L 295.60 747.30 L 291.80 744.50 L 288.20 741.20 L 285.00 737.70 L 282.10 733.90 L 279.60 729.80 L 277.50 725.30 L 275.80 720.80 L 274.60 716.00 L 273.80 711.10 L 273.60 705.90 L 273.60 182.40 L 273.80 177.20 L 274.60 172.30 L 275.80 167.50 L 277.50 163.00 L 279.60 158.60 L 282.10 154.50 L 285.00 150.60 L 288.20 147.10 L 291.80 143.80 L 295.60 141.00 L 299.70 138.50 L 304.10 136.40 L 308.70 134.70 L 313.40 133.50 L 318.40 132.70 L 323.60 132.40 Z" fill="#ffffff" fill-rule="nonzero" filter="url(#矩形_2229)" group-id="5,16,47,73" id="矩形_2229-3" node-id="225" stroke="none" target-height="623.5" target-width="384.99997" target-x="273.6" target-y="132.4"></path><path d="M 302.30 132.40 L 587.40 132.40 L 592.60 132.70 L 597.60 133.50 L 602.30 134.70 L 606.90 136.40 L 611.30 138.50 L 615.40 141.00 L 619.20 143.80 L 622.80 147.10 L 626.00 150.60 L 628.90 154.50 L 631.40 158.60 L 633.50 163.00 L 635.20 167.50 L 636.40 172.30 L 637.10 177.20 L 637.40 182.40 L 637.40 705.90 L 637.10 711.10 L 636.40 716.00 L 635.20 720.80 L 633.50 725.30 L 631.40 729.80 L 628.90 733.90 L 626.00 737.70 L 622.80 741.20 L 619.20 744.50 L 615.40 747.30 L 611.30 749.80 L 606.90 752.00 L 602.30 753.60 L 597.60 754.90 L 592.60 755.60 L 587.40 755.90 L 302.30 755.90 L 297.20 755.60 L 292.20 754.90 L 287.50 753.60 L 282.90 752.00 L 278.50 749.80 L 274.40 747.30 L 270.60 744.50 L 267.00 741.20 L 263.80 737.70 L 260.90 733.90 L 258.40 729.80 L 256.30 725.30 L 254.60 720.80 L 253.40 716.00 L 252.60 711.10 L 252.30 705.90 L 252.30 182.40 L 252.60 177.20 L 253.40 172.30 L 254.60 167.50 L 256.30 163.00 L 258.40 158.60 L 260.90 154.50 L 263.80 150.60 L 267.00 147.10 L 270.60 143.80 L 274.40 141.00 L 278.50 138.50 L 282.90 136.40 L 287.50 134.70 L 292.20 133.50 L 297.20 132.70 L 302.30 132.40 Z" fill="url(#linear-gradient-8)" fill-rule="nonzero" group-id="5,17,48" id="矩形_2230-2" node-id="227" stroke="none" target-height="623.5" target-width="385.10004" target-x="252.3" target-y="132.4"></path><path d="M 302.30 132.40 L 587.40 132.40 L 592.60 132.70 L 597.60 133.50 L 602.30 134.70 L 606.90 136.40 L 611.30 138.50 L 615.40 141.00 L 619.20 143.80 L 622.80 147.10 L 626.00 150.60 L 628.90 154.50 L 631.40 158.60 L 633.50 163.00 L 635.20 167.50 L 636.40 172.30 L 637.10 177.20 L 637.40 182.40 L 637.40 705.90 L 637.10 711.10 L 636.40 716.00 L 635.20 720.80 L 633.50 725.30 L 631.40 729.80 L 628.90 733.90 L 626.00 737.70 L 622.80 741.20 L 619.20 744.50 L 615.40 747.30 L 611.30 749.80 L 606.90 752.00 L 602.30 753.60 L 597.60 754.90 L 592.60 755.60 L 587.40 755.90 L 302.30 755.90 L 297.20 755.60 L 292.20 754.90 L 287.50 753.60 L 282.90 752.00 L 278.50 749.80 L 274.40 747.30 L 270.60 744.50 L 267.00 741.20 L 263.80 737.70 L 260.90 733.90 L 258.40 729.80 L 256.30 725.30 L 254.60 720.80 L 253.40 716.00 L 252.60 711.10 L 252.30 705.90 L 252.30 182.40 L 252.60 177.20 L 253.40 172.30 L 254.60 167.50 L 256.30 163.00 L 258.40 158.60 L 260.90 154.50 L 263.80 150.60 L 267.00 147.10 L 270.60 143.80 L 274.40 141.00 L 278.50 138.50 L 282.90 136.40 L 287.50 134.70 L 292.20 133.50 L 297.20 132.70 L 302.30 132.40 Z" fill="#ffffff" fill-rule="nonzero" filter="url(#矩形_2230)" group-id="5,17,49,74" id="矩形_2230-3" node-id="229" stroke="none" target-height="623.5" target-width="385.10004" target-x="252.3" target-y="132.4"></path><path d="M 302.30 132.40 L 587.40 132.40 L 592.60 132.70 L 597.60 133.50 L 602.30 134.70 L 606.90 136.40 L 611.30 138.50 L 615.40 141.00 L 619.20 143.80 L 622.80 147.10 L 626.00 150.60 L 628.90 154.50 L 631.40 158.60 L 633.50 163.00 L 635.20 167.50 L 636.40 172.30 L 637.10 177.20 L 637.40 182.40 L 637.40 705.90 L 637.10 711.10 L 636.40 716.00 L 635.20 720.80 L 633.50 725.30 L 631.40 729.80 L 628.90 733.90 L 626.00 737.70 L 622.80 741.20 L 619.20 744.50 L 615.40 747.30 L 611.30 749.80 L 606.90 752.00 L 602.30 753.60 L 597.60 754.90 L 592.60 755.60 L 587.40 755.90 L 302.30 755.90 L 297.20 755.60 L 292.20 754.90 L 287.50 753.60 L 282.90 752.00 L 278.50 749.80 L 274.40 747.30 L 270.60 744.50 L 267.00 741.20 L 263.80 737.70 L 260.90 733.90 L 258.40 729.80 L 256.30 725.30 L 254.60 720.80 L 253.40 716.00 L 252.60 711.10 L 252.30 705.90 L 252.30 182.40 L 252.60 177.20 L 253.40 172.30 L 254.60 167.50 L 256.30 163.00 L 258.40 158.60 L 260.90 154.50 L 263.80 150.60 L 267.00 147.10 L 270.60 143.80 L 274.40 141.00 L 278.50 138.50 L 282.90 136.40 L 287.50 134.70 L 292.20 133.50 L 297.20 132.70 L 302.30 132.40 Z" fill="#ffffff" fill-rule="nonzero" filter="url(#矩形_2242)" group-id="5,18,50" id="矩形_2242-2" node-id="231" stroke="none" target-height="623.5" target-width="385.10004" target-x="252.3" target-y="132.4"></path><path d="M 301.70 194.50 L 588.10 194.50 L 591.40 194.80 L 594.40 195.70 L 597.20 197.00 L 599.70 198.80 L 601.80 200.90 L 603.60 203.50 L 604.90 206.20 L 605.80 209.20 L 606.10 212.50 L 606.10 627.70 L 605.80 631.00 L 604.90 634.00 L 603.60 636.80 L 601.80 639.30 L 599.70 641.50 L 597.20 643.30 L 594.40 644.60 L 591.40 645.40 L 588.10 645.70 L 301.70 645.70 L 298.40 645.40 L 295.40 644.60 L 292.60 643.30 L 290.10 641.50 L 288.00 639.30 L 286.20 636.80 L 284.80 634.00 L 284.00 631.00 L 283.70 627.70 L 283.70 212.50 L 284.00 209.20 L 284.80 206.20 L 286.20 203.50 L 288.00 200.90 L 290.10 198.80 L 292.60 197.00 L 295.40 195.70 L 298.40 194.80 L 301.70 194.50 Z" fill="url(#linearGradient2)" fill-rule="nonzero" group-id="5,19,51" id="矩形_2231-2" node-id="233" stroke="none" target-height="451.2" target-width="322.39996" target-x="283.7" target-y="194.5"></path><path d="M 301.70 194.50 L 588.10 194.50 L 591.30 194.80 L 594.40 195.70 L 597.10 197.00 L 599.70 198.80 L 601.80 200.90 L 603.60 203.40 L 604.90 206.20 L 605.80 209.20 L 606.10 212.50 L 606.10 627.70 L 605.80 631.00 L 604.90 634.00 L 603.60 636.80 L 601.80 639.30 L 599.70 641.50 L 597.10 643.30 L 594.40 644.60 L 591.30 645.40 L 588.10 645.70 L 301.70 645.70 L 298.40 645.40 L 295.40 644.60 L 292.60 643.30 L 290.10 641.50 L 287.90 639.30 L 286.20 636.80 L 284.80 634.00 L 284.00 631.00 L 283.70 627.70 L 283.70 212.50 L 284.00 209.20 L 284.80 206.20 L 286.20 203.40 L 287.90 200.90 L 290.10 198.80 L 292.60 197.00 L 295.40 195.70 L 298.40 194.80 L 301.70 194.50 Z" fill="#ffffff" fill-rule="nonzero" filter="url(#矩形_2231)" group-id="5,19,52,75" id="矩形_2231-3" node-id="235" stroke="none" target-height="451.2" target-width="322.39996" target-x="283.7" target-y="194.5"></path><path d="M 412.90 164.00 L 499.60 164.20 L 502.50 165.30 L 504.60 167.50 L 505.80 170.30 L 505.90 171.90 L 505.80 173.40 L 504.60 176.20 L 502.50 178.40 L 499.60 179.50 L 412.90 179.70 L 410.80 179.40 L 408.90 178.60 L 407.30 177.40 L 406.10 175.80 L 405.30 174.00 L 405.00 171.90 L 405.30 169.80 L 406.10 167.90 L 407.30 166.30 L 408.90 165.10 L 410.80 164.30 L 412.90 164.00 Z" fill="url(#linearGradient3)" fill-rule="nonzero" group-id="5,20,53" id="矩形_2283-2" node-id="237" stroke="none" target-height="15.699997" target-width="100.899994" target-x="405" target-y="164"></path><path d="M 412.90 164.00 L 499.60 164.20 L 502.50 165.30 L 504.60 167.50 L 505.80 170.30 L 505.90 171.90 L 505.80 173.40 L 504.60 176.20 L 502.50 178.40 L 499.60 179.50 L 412.90 179.70 L 410.80 179.40 L 408.90 178.60 L 407.30 177.40 L 406.10 175.80 L 405.30 174.00 L 405.00 171.90 L 405.30 169.80 L 406.10 167.90 L 407.30 166.30 L 408.90 165.10 L 410.80 164.30 L 412.90 164.00 Z" fill="#ffffff" fill-rule="nonzero" filter="url(#矩形_2283)" group-id="5,20,54,76" id="矩形_2283-3" node-id="239" stroke="none" target-height="15.699997" target-width="100.899994" target-x="405" target-y="164"></path><path d="M 455.50 659.60 L 460.40 659.90 L 465.00 660.80 L 469.40 662.40 L 473.50 664.50 L 477.30 667.00 L 480.80 670.00 L 483.80 673.50 L 486.30 677.20 L 488.40 681.40 L 489.90 685.80 L 490.90 690.40 L 491.20 695.30 L 490.90 700.20 L 489.90 704.80 L 488.40 709.20 L 486.30 713.30 L 483.80 717.10 L 480.80 720.50 L 477.30 723.60 L 473.50 726.10 L 469.40 728.20 L 465.00 729.70 L 460.40 730.70 L 455.50 731.00 L 450.60 730.70 L 446.00 729.70 L 441.60 728.20 L 437.40 726.10 L 433.70 723.60 L 430.20 720.50 L 427.20 717.10 L 424.70 713.30 L 422.60 709.20 L 421.10 704.80 L 420.10 700.20 L 419.80 695.30 L 420.10 690.40 L 421.10 685.80 L 422.60 681.40 L 424.70 677.20 L 427.20 673.50 L 430.20 670.00 L 433.70 667.00 L 437.40 664.50 L 441.60 662.40 L 446.00 660.80 L 450.60 659.90 L 455.50 659.60 Z" fill="url(#linear-gradient-9)" fill-rule="nonzero" group-id="5,21,55" id="矩形_2284-2" node-id="241" stroke="none" target-height="71.400024" target-width="71.400024" target-x="419.8" target-y="659.6"></path><path d="M 455.50 659.60 L 460.40 659.90 L 465.00 660.80 L 469.40 662.40 L 473.50 664.50 L 477.30 667.00 L 480.80 670.00 L 483.80 673.50 L 486.30 677.20 L 488.40 681.40 L 489.90 685.80 L 490.90 690.40 L 491.20 695.30 L 490.90 700.20 L 489.90 704.80 L 488.40 709.20 L 486.30 713.30 L 483.80 717.10 L 480.80 720.50 L 477.30 723.60 L 473.50 726.10 L 469.40 728.20 L 465.00 729.70 L 460.40 730.70 L 455.50 731.00 L 450.60 730.70 L 446.00 729.70 L 441.60 728.20 L 437.40 726.10 L 433.70 723.60 L 430.20 720.50 L 427.20 717.10 L 424.70 713.30 L 422.60 709.20 L 421.10 704.80 L 420.10 700.20 L 419.80 695.30 L 420.10 690.40 L 421.10 685.80 L 422.60 681.40 L 424.70 677.20 L 427.20 673.50 L 430.20 670.00 L 433.70 667.00 L 437.40 664.50 L 441.60 662.40 L 446.00 660.80 L 450.60 659.90 L 455.50 659.60 Z" fill="#ffffff" fill-rule="nonzero" filter="url(#矩形_2284)" group-id="5,21,56,77" id="矩形_2284-3" node-id="243" stroke="none" target-height="71.400024" target-width="71.400024" target-x="419.8" target-y="659.6"></path><path d="M 454.10 292.00 L 802.10 292.00 L 810.00 292.80 L 817.30 295.10 L 821.80 297.30 L 826.00 300.10 L 829.70 303.40 L 833.00 307.20 L 835.80 311.30 L 838.10 315.80 L 840.30 323.10 L 841.10 331.00 L 841.10 562.00 L 840.90 566.00 L 840.30 569.90 L 838.10 577.20 L 835.80 581.70 L 833.00 585.80 L 829.70 589.60 L 826.00 592.90 L 821.80 595.70 L 817.30 597.90 L 810.00 600.20 L 802.10 601.00 L 454.10 601.00 L 446.20 600.20 L 438.90 597.90 L 434.40 595.70 L 430.30 592.90 L 426.50 589.60 L 423.20 585.80 L 420.50 581.70 L 418.20 577.20 L 415.90 569.90 L 415.10 562.00 L 415.10 331.00 L 415.30 327.00 L 415.90 323.10 L 418.20 315.80 L 420.50 311.30 L 423.20 307.20 L 426.50 303.40 L 430.30 300.10 L 434.40 297.30 L 438.90 295.10 L 446.20 292.80 L 454.10 292.00 Z" fill="#6babff" fill-rule="nonzero" group-id="5,22,57,78" id="矩形_2244-2" node-id="246" stroke="none" target-height="309" target-width="425.99997" target-x="415.1" target-y="292"></path><path d="M 454.10 292.00 L 802.10 292.00 L 806.20 292.20 L 813.70 293.80 L 817.30 295.10 L 821.80 297.30 L 826.00 300.10 L 829.70 303.40 L 833.00 307.20 L 835.80 311.30 L 838.10 315.80 L 839.40 319.40 L 840.90 327.00 L 841.10 331.00 L 841.10 562.00 L 840.90 566.00 L 840.30 569.90 L 838.10 577.20 L 835.80 581.70 L 833.00 585.80 L 829.70 589.60 L 826.00 592.90 L 821.80 595.70 L 817.30 597.90 L 810.00 600.20 L 806.20 600.80 L 802.10 601.00 L 454.10 601.00 L 450.10 600.80 L 442.50 599.20 L 439.00 597.90 L 434.40 595.70 L 430.30 592.90 L 426.60 589.60 L 423.30 585.80 L 420.50 581.70 L 418.20 577.20 L 416.90 573.60 L 415.30 566.00 L 415.10 562.00 L 415.10 331.00 L 415.30 327.00 L 415.90 323.10 L 418.20 315.80 L 420.50 311.30 L 423.30 307.20 L 426.60 303.40 L 430.30 300.10 L 434.40 297.30 L 439.00 295.10 L 446.20 292.80 L 454.10 292.00 Z" fill="#ffffff" fill-rule="nonzero" filter="url(#矩形_2244)" group-id="5,22,57,79,91" id="矩形_2244-3" node-id="248" stroke="none" target-height="309" target-width="425.99997" target-x="415.1" target-y="292"></path><path d="M 444.10 292.00 L 792.10 292.00 L 800.00 292.80 L 807.30 295.10 L 811.80 297.30 L 816.00 300.10 L 819.70 303.40 L 823.00 307.20 L 825.80 311.30 L 828.10 315.80 L 830.30 323.10 L 831.10 331.00 L 831.10 562.00 L 830.90 566.00 L 830.30 569.90 L 828.10 577.20 L 825.80 581.70 L 823.00 585.80 L 819.70 589.60 L 816.00 592.90 L 811.80 595.70 L 807.30 597.90 L 800.00 600.20 L 792.10 601.00 L 444.10 601.00 L 436.20 600.20 L 428.90 597.90 L 424.40 595.70 L 420.30 592.90 L 416.50 589.60 L 413.20 585.80 L 410.50 581.70 L 408.20 577.20 L 405.90 569.90 L 405.10 562.00 L 405.10 331.00 L 405.30 327.00 L 405.90 323.10 L 408.20 315.80 L 410.50 311.30 L 413.20 307.20 L 416.50 303.40 L 420.30 300.10 L 424.40 297.30 L 428.90 295.10 L 436.20 292.80 L 444.10 292.00 Z" fill="url(#linear-gradient-12)" fill-rule="nonzero" group-id="5,22,58,80" id="矩形_2245-2" node-id="250" stroke="none" target-height="309" target-width="425.99997" target-x="405.1" target-y="292"></path><path d="M 444.10 292.00 L 792.10 292.00 L 796.20 292.20 L 803.70 293.80 L 807.30 295.10 L 811.80 297.30 L 816.00 300.10 L 819.70 303.40 L 823.00 307.20 L 825.80 311.30 L 828.10 315.80 L 829.40 319.40 L 830.90 327.00 L 831.10 331.00 L 831.10 562.00 L 830.90 566.00 L 830.30 569.90 L 828.10 577.20 L 825.80 581.70 L 823.00 585.80 L 819.70 589.60 L 816.00 592.90 L 811.80 595.70 L 807.30 597.90 L 800.00 600.20 L 796.20 600.80 L 792.10 601.00 L 444.10 601.00 L 440.10 600.80 L 432.50 599.20 L 429.00 597.90 L 424.40 595.70 L 420.30 592.90 L 416.60 589.60 L 413.30 585.80 L 410.50 581.70 L 408.20 577.20 L 406.90 573.60 L 405.30 566.00 L 405.10 562.00 L 405.10 331.00 L 405.30 327.00 L 405.90 323.10 L 408.20 315.80 L 410.50 311.30 L 413.30 307.20 L 416.60 303.40 L 420.30 300.10 L 424.40 297.30 L 429.00 295.10 L 436.20 292.80 L 444.10 292.00 Z" fill="#ffffff" fill-rule="nonzero" filter="url(#矩形_2245)" group-id="5,22,58,81,92" id="矩形_2245-3" node-id="252" stroke="none" target-height="309" target-width="425.99997" target-x="405.1" target-y="292"></path><path d="M 444.10 292.00 L 792.10 292.00 L 796.20 292.20 L 803.70 293.80 L 807.30 295.10 L 811.80 297.30 L 816.00 300.10 L 819.70 303.40 L 823.00 307.20 L 825.80 311.30 L 828.10 315.80 L 829.40 319.40 L 830.90 327.00 L 831.10 331.00 L 831.10 562.00 L 830.90 566.00 L 830.30 569.90 L 828.10 577.20 L 825.80 581.70 L 823.00 585.80 L 819.70 589.60 L 816.00 592.90 L 811.80 595.70 L 807.30 597.90 L 800.00 600.20 L 796.20 600.80 L 792.10 601.00 L 444.10 601.00 L 440.10 600.80 L 432.50 599.20 L 429.00 597.90 L 424.40 595.70 L 420.30 592.90 L 416.60 589.60 L 413.30 585.80 L 410.50 581.70 L 408.20 577.20 L 406.90 573.60 L 405.30 566.00 L 405.10 562.00 L 405.10 331.00 L 405.30 327.00 L 405.90 323.10 L 408.20 315.80 L 410.50 311.30 L 413.30 307.20 L 416.60 303.40 L 420.30 300.10 L 424.40 297.30 L 429.00 295.10 L 436.20 292.80 L 444.10 292.00 Z" fill="#ffffff" fill-rule="nonzero" filter="url(#矩形_2251)" group-id="5,22,59,82" id="矩形_2251-2" node-id="254" stroke="none" target-height="309" target-width="425.99997" target-x="405.1" target-y="292"></path><path d="M 524.80 436.50 L 518.90 436.20 L 513.00 435.30 L 507.40 433.90 L 502.00 431.90 L 496.90 429.40 L 492.00 426.50 L 487.40 423.10 L 483.30 419.30 L 479.50 415.10 L 476.10 410.60 L 473.20 405.80 L 470.70 400.60 L 468.70 395.20 L 467.30 389.60 L 466.40 383.70 L 466.10 377.80 L 466.40 371.90 L 467.30 366.00 L 468.70 360.40 L 470.70 355.00 L 473.20 349.90 L 476.10 345.00 L 479.50 340.40 L 483.30 336.20 L 487.50 332.50 L 492.00 329.10 L 496.80 326.20 L 502.00 323.70 L 507.40 321.70 L 513.00 320.30 L 518.90 319.40 L 524.80 319.10 L 530.70 319.40 L 536.60 320.30 L 542.20 321.70 L 547.60 323.70 L 552.70 326.10 L 557.60 329.10 L 562.20 332.50 L 566.40 336.30 L 570.10 340.50 L 573.50 345.00 L 576.40 349.80 L 578.90 354.90 L 580.90 360.40 L 582.30 366.00 L 583.20 371.90 L 583.50 377.80 L 583.20 383.70 L 582.30 389.60 L 580.90 395.20 L 578.90 400.60 L 576.50 405.70 L 573.50 410.60 L 570.10 415.20 L 566.30 419.30 L 562.10 423.10 L 557.60 426.50 L 552.80 429.40 L 547.70 431.90 L 542.20 433.90 L 536.60 435.30 L 530.80 436.20 L 524.80 436.50 Z M 524.80 349.70 L 521.00 350.00 L 517.50 350.70 L 514.00 351.90 L 510.70 353.50 L 507.80 355.50 L 505.00 357.90 L 502.60 360.60 L 500.60 363.70 L 498.90 367.10 L 497.70 370.60 L 497.00 374.20 L 496.80 377.90 L 497.00 381.50 L 497.70 385.00 L 498.90 388.50 L 500.50 391.70 L 502.50 394.80 L 505.00 397.60 L 507.80 400.10 L 510.90 402.10 L 514.10 403.70 L 517.60 404.90 L 521.10 405.60 L 524.70 405.90 L 528.40 405.60 L 532.00 404.90 L 535.50 403.70 L 538.90 402.00 L 542.00 400.00 L 544.70 397.60 L 547.10 394.80 L 549.10 391.90 L 550.70 388.60 L 551.90 385.20 L 552.60 381.60 L 552.90 377.80 L 552.60 373.90 L 551.90 370.30 L 550.70 366.90 L 549.00 363.60 L 547.00 360.70 L 544.60 358.00 L 541.90 355.60 L 539.00 353.60 L 535.70 351.90 L 532.30 350.70 L 528.70 350.00 L 524.80 349.70 Z" fill="url(#linear-gradient-13)" fill-rule="nonzero" filter="url(#减去_4)" group-id="5,23,60,83,93" id="减去_4-3" node-id="258" stroke="none" target-height="117.399994" target-width="117.399994" target-x="466.1" target-y="319.1"></path><path d="M 524.80 436.50 L 518.90 436.20 L 513.00 435.30 L 507.40 433.90 L 502.00 431.90 L 496.90 429.40 L 492.00 426.50 L 487.40 423.10 L 483.30 419.30 L 479.50 415.10 L 476.10 410.60 L 473.20 405.80 L 470.70 400.60 L 468.70 395.20 L 467.30 389.60 L 466.40 383.70 L 466.10 377.80 L 466.40 371.90 L 467.30 366.00 L 468.70 360.40 L 470.70 355.00 L 473.20 349.90 L 476.10 345.00 L 479.50 340.40 L 483.30 336.20 L 487.50 332.50 L 492.00 329.10 L 496.80 326.20 L 502.00 323.70 L 507.40 321.70 L 513.00 320.30 L 518.90 319.40 L 524.80 319.10 L 530.70 319.40 L 536.60 320.30 L 542.20 321.70 L 547.60 323.70 L 552.70 326.10 L 557.60 329.10 L 562.20 332.50 L 566.40 336.30 L 570.10 340.50 L 573.50 345.00 L 576.40 349.80 L 578.90 354.90 L 580.90 360.40 L 582.30 366.00 L 583.20 371.90 L 583.50 377.80 L 583.20 383.70 L 582.30 389.60 L 580.90 395.20 L 578.90 400.60 L 576.50 405.70 L 573.50 410.60 L 570.10 415.20 L 566.30 419.30 L 562.10 423.10 L 557.60 426.50 L 552.80 429.40 L 547.70 431.90 L 542.20 433.90 L 536.60 435.30 L 530.80 436.20 L 524.80 436.50 Z M 524.80 349.70 L 521.00 350.00 L 517.50 350.70 L 514.00 351.90 L 510.70 353.50 L 507.80 355.50 L 505.00 357.90 L 502.60 360.60 L 500.60 363.70 L 498.90 367.10 L 497.70 370.60 L 497.00 374.20 L 496.80 377.90 L 497.00 381.50 L 497.70 385.00 L 498.90 388.50 L 500.50 391.70 L 502.50 394.80 L 505.00 397.60 L 507.80 400.10 L 510.90 402.10 L 514.10 403.70 L 517.60 404.90 L 521.10 405.60 L 524.70 405.90 L 528.40 405.60 L 532.00 404.90 L 535.50 403.70 L 538.90 402.00 L 542.00 400.00 L 544.70 397.60 L 547.10 394.80 L 549.10 391.90 L 550.70 388.60 L 551.90 385.20 L 552.60 381.60 L 552.90 377.80 L 552.60 373.90 L 551.90 370.30 L 550.70 366.90 L 549.00 363.60 L 547.00 360.70 L 544.60 358.00 L 541.90 355.60 L 539.00 353.60 L 535.70 351.90 L 532.30 350.70 L 528.70 350.00 L 524.80 349.70 Z" fill="#ffffff" fill-rule="nonzero" filter="url(#减去_4-2)" group-id="5,23,60,84,94" id="减去_4-4" node-id="260" stroke="none" target-height="117.399994" target-width="117.399994" target-x="466.1" target-y="319.1"></path><path d="M 524.80 436.30 L 518.90 436.00 L 513.00 435.10 L 507.90 433.80 L 516.60 404.80 L 523.10 406.00 L 529.60 405.70 L 535.90 403.80 L 541.60 400.50 L 544.20 398.30 L 548.40 393.30 L 551.40 387.50 L 552.30 384.40 L 553.10 377.80 L 552.80 373.60 L 551.90 369.60 L 550.40 365.70 L 579.30 356.50 L 580.90 361.20 L 582.10 366.00 L 583.00 371.90 L 583.30 377.80 L 583.00 383.70 L 582.10 389.60 L 580.70 395.20 L 578.70 400.60 L 576.30 405.70 L 573.30 410.50 L 569.90 415.00 L 566.20 419.20 L 562.00 422.90 L 557.50 426.30 L 552.70 429.20 L 547.60 431.70 L 542.20 433.70 L 536.60 435.10 L 530.70 436.00 L 524.80 436.30 Z" fill="url(#linear-gradient-14)" fill-rule="nonzero" group-id="5,23,61,85" id="减去_6-2" node-id="262" stroke="none" target-height="79.79999" target-width="75.399994" target-x="507.9" target-y="356.5"></path><path d="M 524.80 436.30 L 518.90 436.00 L 513.00 435.10 L 507.90 433.80 L 516.60 404.80 L 523.10 406.00 L 529.60 405.70 L 535.90 403.80 L 541.60 400.50 L 544.20 398.30 L 548.40 393.30 L 551.40 387.50 L 552.30 384.40 L 553.10 377.80 L 552.80 373.60 L 551.90 369.60 L 550.40 365.70 L 579.30 356.50 L 580.90 361.20 L 582.10 366.00 L 583.00 371.90 L 583.30 377.80 L 583.00 383.70 L 582.10 389.60 L 580.70 395.20 L 578.70 400.60 L 576.30 405.70 L 573.30 410.50 L 569.90 415.00 L 566.20 419.20 L 562.00 422.90 L 557.50 426.30 L 552.70 429.20 L 547.60 431.70 L 542.20 433.70 L 536.60 435.10 L 530.70 436.00 L 524.80 436.30 Z" fill="#ffffff" fill-rule="nonzero" filter="url(#减去_6)" group-id="5,23,61,86,95" id="减去_6-3" node-id="264" stroke="none" target-height="79.79999" target-width="75.399994" target-x="507.9" target-y="356.5"></path><path d="M 636.40 326.00 L 696.30 326.00 L 698.00 326.20 L 699.40 326.80 L 701.50 329.00 L 702.10 330.40 L 702.30 332.00 L 702.30 336.70 L 702.10 338.30 L 701.50 339.70 L 699.40 341.90 L 698.00 342.50 L 696.30 342.70 L 636.40 342.70 L 634.80 342.50 L 633.40 341.90 L 631.20 339.70 L 630.70 338.30 L 630.40 336.70 L 630.40 332.00 L 630.70 330.40 L 631.20 329.00 L 632.20 327.80 L 633.40 326.80 L 634.80 326.20 L 636.40 326.00 Z" fill="url(#linearGradient4)" fill-rule="nonzero" group-id="5,24,62" id="矩形_2285-2" node-id="266" stroke="none" target-height="16.700012" target-width="71.89996" target-x="630.4" target-y="326"></path><path d="M 636.40 326.00 L 696.30 326.00 L 698.00 326.30 L 699.40 326.80 L 701.50 329.00 L 702.30 332.00 L 702.30 336.70 L 702.10 338.30 L 701.50 339.70 L 700.60 340.90 L 698.00 342.50 L 696.30 342.70 L 636.40 342.70 L 634.80 342.50 L 633.40 341.90 L 631.20 339.70 L 630.60 338.30 L 630.40 336.70 L 630.40 332.00 L 630.60 330.40 L 631.20 329.00 L 632.20 327.80 L 633.40 326.80 L 634.80 326.30 L 636.40 326.00 Z" fill="#ffffff" fill-rule="nonzero" filter="url(#矩形_2285)" group-id="5,24,63,87" id="矩形_2285-3" node-id="268" stroke="none" target-height="16.700012" target-width="71.89996" target-x="630.4" target-y="326"></path><path d="M 636.40 369.50 L 755.30 369.50 L 757.00 369.70 L 759.60 371.20 L 760.50 372.40 L 761.10 373.80 L 761.30 375.50 L 761.30 380.10 L 760.50 383.20 L 758.40 385.30 L 755.30 386.10 L 636.40 386.10 L 634.80 385.90 L 633.40 385.30 L 632.20 384.40 L 630.70 381.80 L 630.40 380.10 L 630.40 375.50 L 631.20 372.40 L 633.40 370.30 L 634.80 369.70 L 636.40 369.50 Z" fill="url(#linearGradient5)" fill-rule="nonzero" group-id="5,25,64" id="矩形_2287-2" node-id="270" stroke="none" target-height="16.600006" target-width="130.89996" target-x="630.4" target-y="369.5"></path><path d="M 636.40 369.50 L 755.30 369.50 L 757.00 369.70 L 758.40 370.30 L 759.60 371.20 L 760.50 372.40 L 761.10 373.80 L 761.30 375.50 L 761.30 380.10 L 760.50 383.20 L 758.40 385.30 L 755.30 386.10 L 636.40 386.10 L 634.80 385.90 L 633.40 385.30 L 632.20 384.40 L 631.20 383.20 L 630.60 381.80 L 630.40 380.10 L 630.40 375.50 L 631.20 372.40 L 633.40 370.30 L 634.80 369.70 L 636.40 369.50 Z" fill="#ffffff" fill-rule="nonzero" filter="url(#矩形_2287)" group-id="5,25,65,88" id="矩形_2287-3" node-id="272" stroke="none" target-height="16.600006" target-width="130.89996" target-x="630.4" target-y="369.5"></path><path d="M 636.40 414.30 L 784.30 414.30 L 786.00 414.50 L 788.60 416.10 L 789.50 417.30 L 790.10 418.70 L 790.30 420.30 L 790.30 425.00 L 790.10 426.60 L 789.50 428.00 L 787.40 430.20 L 784.30 431.00 L 636.40 431.00 L 634.80 430.80 L 633.40 430.20 L 632.20 429.20 L 631.20 428.00 L 630.70 426.60 L 630.40 425.00 L 630.40 420.30 L 630.70 418.70 L 631.20 417.30 L 633.40 415.10 L 634.80 414.50 L 636.40 414.30 Z" fill="url(#linear-gradient-15)" fill-rule="nonzero" group-id="5,26,66" id="矩形_2288-2" node-id="274" stroke="none" target-height="16.700012" target-width="159.89996" target-x="630.4" target-y="414.3"></path><path d="M 636.40 414.30 L 784.30 414.30 L 786.00 414.60 L 787.40 415.10 L 788.60 416.10 L 790.10 418.70 L 790.30 420.30 L 790.30 425.00 L 789.50 428.00 L 787.40 430.20 L 784.30 431.00 L 636.40 431.00 L 634.80 430.80 L 632.20 429.20 L 631.20 428.00 L 630.60 426.60 L 630.40 425.00 L 630.40 420.30 L 630.60 418.70 L 631.20 417.30 L 633.40 415.10 L 636.40 414.30 Z" fill="#ffffff" fill-rule="nonzero" filter="url(#矩形_2288)" group-id="5,26,67,89" id="矩形_2288-3" node-id="276" stroke="none" target-height="16.700012" target-width="159.89996" target-x="630.4" target-y="414.3"></path><path d="M 491.20 540.70 L 491.20 555.80 L 531.20 569.00 L 576.40 529.40 L 627.70 542.20 L 718.20 477.00 L 730.00 489.40 L 733.20 457.80 L 698.90 457.80 L 711.00 469.10 L 627.70 527.50 L 576.40 516.20 L 531.20 555.80 Z" fill="url(#linear-gradient-18)" fill-rule="nonzero" filter="url(#路径_1653)" group-id="5,27,68" id="路径_1653-2" node-id="278" stroke="none" target-height="111.20001" target-width="242" target-x="491.2" target-y="457.8"></path><path d="M 549.30 751.30 L 547.60 752.20 L 540.60 759.10 L 528.10 757.70 L 518.00 756.20 L 507.00 754.20 L 483.60 748.90 L 461.80 742.60 L 438.80 734.50 L 426.30 729.40 L 414.10 724.00 L 401.60 717.80 L 388.80 710.90 L 379.50 705.30 L 360.70 692.90 L 351.40 685.90 L 342.30 678.70 L 333.50 670.90 L 324.70 662.60 L 316.10 653.70 L 288.60 622.90 L 267.00 596.50 L 250.40 574.50 L 240.00 559.30 L 232.50 547.40 L 226.10 536.30 L 218.70 521.30 L 215.80 513.40 L 194.20 524.40 L 204.70 479.70 L 209.00 463.00 L 213.20 448.30 L 215.30 441.90 L 218.40 434.60 L 220.00 432.40 L 222.70 432.30 L 230.30 433.90 L 250.80 440.70 L 282.10 452.70 L 308.20 463.40 L 283.90 477.50 L 291.40 493.90 L 309.30 532.10 L 320.20 554.30 L 336.60 585.60 L 346.40 602.00 L 350.40 607.70 L 360.80 621.30 L 376.10 640.00 L 385.30 650.40 L 403.40 669.30 L 419.90 684.90 L 437.90 699.90 L 447.60 707.30 L 457.60 714.20 L 467.90 720.80 L 478.70 727.10 L 495.30 735.40 L 512.70 742.40 L 521.60 745.30 L 530.60 747.80 L 539.90 749.80 L 549.30 751.30 Z" fill="url(#linear-gradient-19)" fill-rule="nonzero" group-id="5,28,69" id="路径_1743-2" node-id="280" stroke="none" target-height="326.8" target-width="355.09998" target-x="194.2" target-y="432.3"></path><path d="M 549.20 751.30 L 547.60 752.20 L 540.60 759.10 L 528.10 757.70 L 518.00 756.20 L 506.90 754.20 L 483.60 748.90 L 461.80 742.60 L 438.80 734.50 L 426.30 729.40 L 414.10 724.00 L 401.60 717.80 L 388.80 710.90 L 379.50 705.30 L 360.70 692.90 L 351.40 685.90 L 342.30 678.70 L 333.40 670.90 L 324.70 662.60 L 316.10 653.70 L 288.60 622.90 L 267.00 596.50 L 250.40 574.50 L 240.00 559.30 L 232.50 547.40 L 226.10 536.30 L 218.70 521.20 L 215.80 513.40 L 194.20 524.40 L 204.70 479.70 L 209.00 463.00 L 213.20 448.30 L 215.30 441.90 L 218.40 434.60 L 220.00 432.40 L 222.70 432.20 L 230.30 433.90 L 250.80 440.70 L 282.00 452.70 L 308.20 463.40 L 283.90 477.50 L 291.40 493.90 L 309.30 532.10 L 320.20 554.30 L 336.60 585.60 L 346.40 602.00 L 350.40 607.70 L 360.80 621.30 L 376.10 640.00 L 385.30 650.40 L 403.40 669.30 L 419.90 684.90 L 437.90 699.90 L 447.60 707.30 L 457.60 714.20 L 467.90 720.80 L 478.70 727.10 L 495.30 735.40 L 512.70 742.40 L 521.60 745.30 L 530.60 747.70 L 539.90 749.80 L 549.20 751.30 Z" fill="#ffffff" fill-rule="nonzero" filter="url(#路径_1743)" group-id="5,28,70,90" id="路径_1743-3" node-id="282" stroke="none" target-height="326.89996" target-width="355" target-x="194.2" target-y="432.2"></path><path d="M 77.50 691.90 L 77.90 699.50 L 78.80 704.70 L 80.70 712.70 L 83.60 722.00 L 87.00 731.70 L 95.70 752.60 L 100.70 763.20 L 106.10 773.60 L 111.80 783.50 L 117.70 793.00 L 123.60 801.40 L 127.20 805.90 L 131.70 810.30 L 137.00 814.80 L 143.40 819.20 L 150.80 823.70 L 157.90 827.40 L 166.00 831.00 L 175.20 834.40 L 185.50 837.80 L 197.00 841.00 L 207.90 843.50 L 219.90 845.80 L 233.00 847.80 L 247.40 849.60 L 263.10 851.00 L 277.90 851.90 L 294.00 852.50 L 311.30 852.60 L 329.90 852.30 L 349.90 851.60 L 371.50 850.20 L 394.20 848.20 L 417.90 845.50 L 441.50 842.40 L 465.70 838.70 L 490.60 834.30 L 515.30 829.50 L 540.30 824.10 L 565.50 818.10 L 590.70 811.70 L 615.60 804.70 L 640.50 797.30 L 665.20 789.40 L 689.40 781.00 L 713.10 772.20 L 730.70 765.20 L 764.60 750.70 L 780.90 743.10 L 800.50 733.50 L 818.30 724.40 L 834.40 715.60 L 848.90 707.30 L 863.70 698.30 L 877.00 689.80 L 888.70 681.80 L 899.10 674.20 L 909.70 665.90 L 918.90 658.20 L 926.80 650.90 L 933.60 644.00 L 940.30 636.50 L 945.90 629.60 L 950.50 623.10 L 954.20 617.00 L 957.60 610.40 L 960.20 604.30 L 962.00 598.60 L 963.10 593.30 L 964.10 582.30 L 964.00 576.00 L 963.40 566.50 L 962.10 556.40 L 960.40 546.30 L 955.90 526.10 L 950.70 507.60 L 943.60 486.60 L 940.60 478.90 L 939.40 478.10 L 936.90 479.10 L 934.00 481.40 L 929.90 485.50 L 920.30 496.30 L 909.40 510.00 L 898.20 525.00 L 870.60 563.70 L 768.60 627.60 L 555.90 712.20 L 312.30 748.40 L 159.00 735.30 L 138.10 719.70 L 125.40 710.70 L 112.00 701.80 L 99.20 694.30 L 93.20 691.30 L 88.30 689.40 L 85.10 688.40 L 82.60 688.10 L 80.70 688.20 L 79.40 688.60 L 78.50 689.30 L 77.90 690.40 L 77.50 691.90 Z" fill="url(#linear-gradient-20)" fill-rule="nonzero" group-id="6" id="路径_1745" node-id="283" stroke="none" target-height="374.49997" target-width="886.6" target-x="77.5" target-y="478.1"></path><g clip-path="url(#clip-path-2)" group-id="7" node-id="1003"><path d="M 221.20 841.10 L 416.60 793.50 L 445.40 786.30 L 483.00 776.30 L 551.00 756.70 L 601.30 741.00 L 627.00 732.50 L 678.20 714.50 L 703.30 705.00 L 727.30 695.40 L 758.10 682.10 L 786.20 668.60 L 799.00 661.80 L 832.20 642.80 L 850.20 633.10 L 867.10 624.60 L 881.00 618.20 L 894.00 612.80 L 904.30 608.90 L 914.00 605.70 L 928.80 602.00 L 943.70 599.20 L 947.60 598.10 L 951.00 596.80 L 952.00 598.90 L 952.70 601.40 L 953.00 604.30 L 952.70 608.90 L 951.90 614.00 L 950.70 619.10 L 947.30 629.10 L 941.50 642.70 L 925.60 655.70 L 917.50 662.00 L 895.70 678.00 L 868.10 696.30 L 852.20 706.00 L 829.80 718.80 L 803.00 732.60 L 771.20 747.80 L 736.90 762.60 L 718.00 770.20 L 698.90 777.40 L 678.30 784.70 L 656.10 792.00 L 633.80 798.90 L 609.60 805.80 L 583.50 812.70 L 557.20 819.10 L 528.80 825.40 L 498.10 831.70 L 475.90 835.80 L 454.70 839.10 L 434.20 841.80 L 413.60 843.90 L 394.20 845.60 L 375.80 846.80 L 357.30 847.60 L 324.40 848.10 L 301.20 847.70 L 281.60 846.90 L 263.30 845.70 L 236.40 843.20 L 221.20 841.10 Z" fill="url(#linear-gradient-21)" fill-rule="nonzero" group-id="7,29" id="路径_1748" node-id="285" stroke="none" target-height="251.29999" target-width="731.8" target-x="221.2" target-y="596.8"></path></g><path d="M 445.30 737.30 L 422.80 741.10 L 400.30 744.50 L 377.70 747.40 L 355.00 749.90 L 332.30 752.00 L 309.60 753.60 L 288.60 754.50 L 268.70 754.90 L 249.80 754.90 L 230.90 754.30 L 213.30 753.20 L 196.90 751.70 L 172.60 748.30 L 151.80 744.00 L 141.60 741.30 L 132.30 738.40 L 124.00 735.30 L 116.40 732.10 L 110.00 728.90 L 99.30 722.30 L 90.90 715.50 L 87.20 711.60 L 84.00 707.60 L 81.30 703.50 L 79.20 699.30 L 77.50 695.00 L 76.40 691.00 L 75.40 682.80 L 75.40 678.60 L 139.80 660.50 L 139.30 664.70 L 139.40 669.00 L 140.00 673.20 L 141.10 677.30 L 142.50 680.80 L 144.30 684.30 L 146.50 687.70 L 149.20 691.00 L 152.30 694.20 L 156.50 697.80 L 161.40 701.20 L 167.20 704.60 L 173.80 707.90 L 187.20 713.10 L 195.00 715.40 L 203.70 717.70 L 215.10 720.00 L 227.80 722.10 L 241.80 723.80 L 255.70 725.10 L 270.70 725.90 L 286.60 726.30 L 302.60 726.30 L 319.50 725.80 L 337.30 725.00 L 360.50 723.20 L 383.60 721.00 L 406.60 718.20 L 429.60 714.90 L 452.50 711.00 L 475.60 706.70 L 499.00 701.80 L 522.50 696.50 L 546.00 690.70 L 569.80 684.40 L 593.40 677.60 L 616.90 670.30 L 640.30 662.50 L 663.50 654.30 L 683.50 646.80 L 703.30 638.70 L 722.80 630.20 L 742.20 621.30 L 761.30 611.80 L 775.70 604.20 L 788.90 596.70 L 801.10 589.40 L 813.10 581.60 L 823.90 574.10 L 840.90 560.80 L 847.50 555.10 L 858.50 544.30 L 863.50 538.50 L 867.80 533.10 L 871.40 527.80 L 874.40 522.80 L 877.30 517.00 L 879.30 511.60 L 880.60 506.40 L 881.20 501.50 L 881.30 496.80 L 880.70 492.30 L 879.60 487.90 L 877.90 483.60 L 875.50 479.40 L 872.60 475.40 L 868.90 471.50 L 864.50 467.70 L 859.20 463.90 L 853.00 460.30 L 914.00 443.20 L 918.70 446.20 L 923.10 449.60 L 927.20 453.20 L 931.10 457.20 L 934.10 461.00 L 936.70 465.00 L 938.90 469.20 L 940.70 473.70 L 941.90 478.40 L 942.60 483.30 L 942.80 488.30 L 942.40 493.50 L 941.40 498.90 L 939.70 504.50 L 937.40 510.40 L 934.30 516.60 L 930.80 522.60 L 926.50 528.80 L 921.40 535.30 L 915.50 542.10 L 902.60 555.00 L 886.40 568.80 L 875.00 577.40 L 862.40 586.30 L 848.50 595.40 L 834.30 604.10 L 818.90 612.90 L 802.20 621.80 L 785.20 630.50 L 767.20 639.00 L 748.30 647.60 L 729.20 655.70 L 709.20 663.80 L 688.40 671.70 L 661.50 681.30 L 634.30 690.40 L 607.00 698.90 L 579.60 706.80 L 551.90 714.20 L 525.10 720.80 L 498.40 726.80 L 471.70 732.40 L 445.30 737.30 Z" fill="url(#linear-gradient-22)" fill-rule="nonzero" group-id="8" id="减去_13" node-id="286" stroke="none" target-height="311.7" target-width="867.39996" target-x="75.4" target-y="443.2"></path><path d="M 714.30 512.30 L 690.70 511.90 L 667.10 511.00 L 643.50 509.60 L 620.00 507.60 L 574.90 502.40 L 552.90 499.40 L 508.30 492.00 L 463.20 483.20 L 421.70 473.70 L 381.00 463.20 L 342.40 452.00 L 305.30 440.00 L 270.60 427.60 L 237.90 414.50 L 207.70 401.10 L 180.10 387.40 L 168.20 380.90 L 156.40 374.10 L 144.90 367.00 L 133.60 359.50 L 123.40 352.10 L 114.50 345.00 L 106.70 338.20 L 100.00 331.60 L 94.50 325.70 L 90.00 320.10 L 86.20 314.70 L 83.10 309.60 L 80.70 304.70 L 79.00 300.50 L 77.80 296.20 L 76.90 291.80 L 76.60 287.70 L 76.70 283.60 L 77.30 279.50 L 79.60 272.50 L 83.30 266.00 L 86.70 261.70 L 90.60 257.80 L 94.90 254.30 L 99.50 251.10 L 104.70 247.90 L 110.60 244.80 L 117.40 241.80 L 124.90 238.90 L 141.40 233.80 L 150.10 231.70 L 169.00 227.90 L 189.90 225.00 L 201.90 223.80 L 228.00 222.00 L 228.00 230.20 L 215.20 230.80 L 192.00 232.80 L 177.30 234.70 L 155.50 238.70 L 140.20 242.60 L 131.00 245.60 L 123.10 248.70 L 116.10 251.90 L 110.20 255.30 L 105.10 258.70 L 100.80 262.30 L 97.20 265.90 L 94.30 269.50 L 92.10 273.30 L 90.40 277.10 L 89.30 281.00 L 88.70 285.20 L 88.70 289.60 L 89.30 294.10 L 90.60 298.90 L 92.60 303.90 L 95.00 308.40 L 98.00 313.20 L 101.80 318.20 L 106.30 323.50 L 111.80 329.20 L 118.40 335.20 L 126.00 341.50 L 134.70 348.20 L 144.70 355.10 L 155.80 362.10 L 178.50 375.20 L 203.40 387.80 L 217.50 394.40 L 248.10 407.50 L 269.10 415.80 L 291.20 423.90 L 314.50 431.90 L 337.90 439.40 L 362.30 446.70 L 387.50 453.70 L 412.90 460.30 L 438.90 466.50 L 465.50 472.40 L 488.50 477.10 L 533.80 485.30 L 578.70 492.00 L 600.50 494.70 L 642.10 498.80 L 681.60 501.20 L 700.50 501.80 L 735.10 501.90 L 751.50 501.30 L 768.00 500.20 L 784.40 498.70 L 799.00 496.90 L 812.30 494.60 L 828.90 491.00 L 845.30 486.00 L 853.30 482.90 L 860.20 479.60 L 866.20 476.30 L 871.30 472.90 L 875.60 469.30 L 879.20 465.70 L 882.10 462.00 L 884.30 458.30 L 886.00 454.50 L 887.10 450.60 L 887.70 446.30 L 887.70 442.00 L 887.10 437.40 L 885.80 432.70 L 883.80 427.70 L 881.40 423.20 L 878.40 418.40 L 874.60 413.40 L 870.00 408.00 L 864.60 402.40 L 857.00 395.50 L 849.20 389.00 L 841.00 382.90 L 841.00 373.10 L 852.60 381.50 L 861.50 388.60 L 869.30 395.40 L 876.00 401.90 L 881.40 407.80 L 886.00 413.40 L 889.80 418.80 L 892.90 423.90 L 895.30 428.80 L 897.00 433.00 L 898.20 437.30 L 899.10 441.70 L 899.40 445.80 L 899.30 450.00 L 898.70 454.10 L 896.30 461.10 L 892.70 467.50 L 889.20 471.80 L 885.40 475.70 L 881.10 479.20 L 876.50 482.50 L 871.30 485.60 L 865.30 488.70 L 858.60 491.70 L 851.10 494.70 L 842.60 497.50 L 825.90 501.90 L 816.50 503.90 L 796.90 507.20 L 786.00 508.50 L 768.10 510.20 L 750.20 511.40 L 732.30 512.10 L 714.30 512.30 Z" fill="url(#linear-gradient-6)" fill-rule="nonzero" group-id="9,30" id="减去_17-2" node-id="288" stroke="none" target-height="290.3" target-width="822.80005" target-x="76.6" target-y="222"></path><path d="M 714.30 512.30 L 690.70 511.90 L 667.10 511.00 L 643.50 509.60 L 620.00 507.60 L 574.90 502.40 L 552.90 499.40 L 508.40 492.00 L 463.20 483.20 L 421.70 473.70 L 381.00 463.20 L 342.40 452.00 L 305.30 440.00 L 270.60 427.60 L 237.90 414.50 L 207.70 401.10 L 180.10 387.40 L 168.20 380.90 L 156.40 374.10 L 144.90 367.00 L 133.60 359.50 L 123.40 352.10 L 114.50 345.00 L 106.70 338.20 L 100.00 331.60 L 94.50 325.70 L 90.00 320.10 L 86.20 314.70 L 83.10 309.60 L 80.70 304.70 L 79.00 300.50 L 77.80 296.20 L 76.90 291.80 L 76.60 287.70 L 76.70 283.60 L 77.30 279.50 L 79.60 272.50 L 83.30 266.00 L 86.70 261.70 L 90.60 257.80 L 94.90 254.30 L 99.50 251.10 L 104.70 247.90 L 110.60 244.80 L 117.40 241.80 L 124.90 238.90 L 141.40 233.80 L 150.10 231.70 L 169.00 227.90 L 189.90 225.00 L 201.90 223.80 L 228.00 222.00 L 228.00 230.20 L 215.20 230.80 L 192.00 232.80 L 177.30 234.70 L 155.50 238.70 L 140.20 242.60 L 131.10 245.60 L 123.10 248.70 L 116.20 251.90 L 110.20 255.30 L 105.10 258.70 L 100.80 262.30 L 97.20 265.90 L 94.30 269.50 L 92.10 273.30 L 90.40 277.10 L 89.30 281.00 L 88.70 285.20 L 88.70 289.60 L 89.30 294.10 L 90.60 298.90 L 92.60 303.90 L 95.00 308.40 L 98.00 313.20 L 101.80 318.20 L 106.30 323.50 L 111.80 329.20 L 118.40 335.20 L 126.00 341.50 L 134.70 348.20 L 144.70 355.10 L 155.80 362.10 L 178.50 375.20 L 203.40 387.80 L 217.50 394.40 L 248.10 407.50 L 269.10 415.80 L 291.20 423.90 L 314.50 431.90 L 337.90 439.40 L 362.30 446.70 L 387.50 453.70 L 412.90 460.30 L 438.90 466.50 L 465.50 472.40 L 488.50 477.10 L 533.80 485.30 L 578.70 492.00 L 600.50 494.70 L 642.10 498.80 L 681.60 501.20 L 700.50 501.80 L 735.10 501.90 L 751.50 501.30 L 768.00 500.20 L 784.40 498.70 L 799.00 496.90 L 812.30 494.70 L 828.90 491.00 L 845.30 486.00 L 853.30 482.90 L 860.20 479.60 L 866.20 476.30 L 871.30 472.90 L 875.60 469.30 L 879.20 465.70 L 882.10 462.00 L 884.30 458.30 L 886.00 454.50 L 887.10 450.60 L 887.70 446.30 L 887.70 442.00 L 887.10 437.40 L 885.80 432.70 L 883.80 427.70 L 881.40 423.20 L 878.40 418.40 L 874.60 413.40 L 870.00 408.00 L 864.60 402.40 L 857.00 395.50 L 849.20 389.00 L 841.00 382.90 L 841.00 373.10 L 852.60 381.50 L 861.50 388.60 L 869.30 395.40 L 876.00 401.90 L 881.40 407.80 L 886.00 413.40 L 889.80 418.80 L 892.90 423.90 L 895.30 428.80 L 897.00 433.00 L 898.20 437.30 L 899.10 441.70 L 899.40 445.80 L 899.30 450.00 L 898.70 454.10 L 896.40 461.10 L 892.70 467.50 L 889.20 471.80 L 885.40 475.70 L 881.10 479.20 L 876.50 482.50 L 871.30 485.60 L 865.30 488.70 L 858.60 491.70 L 851.10 494.70 L 842.60 497.50 L 825.90 501.90 L 816.50 503.90 L 796.90 507.20 L 786.00 508.50 L 768.10 510.20 L 750.20 511.40 L 732.30 512.10 L 714.30 512.30 Z" fill="#ffffff" fill-rule="nonzero" filter="url(#减去_17)" group-id="9,31,71" id="减去_17-3" node-id="290" stroke="none" target-height="290.3" target-width="822.80005" target-x="76.6" target-y="222"></path><path d="M 214.00 363.40 L 213.70 368.20 L 213.00 372.80 L 211.90 377.20 L 210.30 381.50 L 208.40 385.60 L 206.00 389.40 L 203.40 393.00 L 200.40 396.30 L 197.10 399.30 L 193.50 401.90 L 189.70 404.30 L 185.60 406.20 L 181.40 407.80 L 176.90 408.90 L 172.30 409.60 L 167.50 409.90 L 162.70 409.60 L 158.10 408.90 L 153.60 407.80 L 149.40 406.20 L 145.30 404.30 L 141.50 401.90 L 137.90 399.30 L 134.60 396.30 L 131.60 393.00 L 129.00 389.40 L 126.60 385.60 L 124.70 381.50 L 123.10 377.20 L 122.00 372.80 L 121.30 368.20 L 121.00 363.40 L 121.30 358.60 L 122.00 354.00 L 123.10 349.50 L 124.70 345.30 L 126.60 341.20 L 129.00 337.40 L 131.60 333.80 L 134.60 330.50 L 137.90 327.50 L 141.50 324.80 L 145.30 322.50 L 149.40 320.50 L 153.60 319.00 L 158.10 317.90 L 162.70 317.20 L 167.50 316.90 L 172.30 317.20 L 176.90 317.90 L 181.40 319.00 L 185.60 320.50 L 189.70 322.50 L 193.50 324.80 L 197.10 327.50 L 200.40 330.50 L 203.40 333.80 L 206.00 337.40 L 208.40 341.20 L 210.30 345.30 L 211.90 349.50 L 213.00 354.00 L 213.70 358.60 L 214.00 363.40 Z" fill="url(#linear-gradient-24)" fill-rule="nonzero" group-id="10,32" id="椭圆_722-2" node-id="292" stroke="none" target-height="93" target-width="93" target-x="121" target-y="316.9"></path><path d="M 214.00 363.40 L 213.70 368.20 L 213.00 372.80 L 211.90 377.20 L 210.30 381.50 L 208.40 385.60 L 206.00 389.40 L 203.40 393.00 L 200.40 396.30 L 197.10 399.30 L 193.50 401.90 L 189.70 404.30 L 185.60 406.20 L 181.40 407.80 L 176.90 408.90 L 172.30 409.60 L 167.50 409.90 L 162.70 409.60 L 158.10 408.90 L 153.60 407.80 L 149.40 406.20 L 145.30 404.30 L 141.50 401.90 L 137.90 399.30 L 134.60 396.30 L 131.60 393.00 L 129.00 389.40 L 126.60 385.60 L 124.70 381.50 L 123.10 377.20 L 122.00 372.80 L 121.30 368.20 L 121.00 363.40 L 121.30 358.60 L 122.00 354.00 L 123.10 349.50 L 124.70 345.30 L 126.60 341.20 L 129.00 337.40 L 131.60 333.80 L 134.60 330.50 L 137.90 327.50 L 141.50 324.80 L 145.30 322.50 L 149.40 320.50 L 153.60 319.00 L 158.10 317.80 L 162.70 317.10 L 167.50 316.90 L 172.30 317.10 L 176.90 317.80 L 181.40 319.00 L 185.60 320.50 L 189.70 322.50 L 193.50 324.80 L 197.10 327.50 L 200.40 330.50 L 203.40 333.80 L 206.00 337.40 L 208.40 341.20 L 210.30 345.30 L 211.90 349.50 L 213.00 354.00 L 213.70 358.60 L 214.00 363.40 Z" fill="#ffffff" fill-rule="nonzero" filter="url(#椭圆_722)" group-id="10,33,72" id="椭圆_722-3" node-id="294" stroke="none" target-height="93" target-width="93" target-x="121" target-y="316.9"></path><path d="M 843.00 620.20 L 842.00 618.80 L 839.30 616.60 L 836.20 615.50 L 834.40 615.40 L 831.00 615.90 L 828.10 617.60 L 826.80 618.80 L 791.80 675.90 L 791.20 676.30 L 727.80 691.40 L 726.10 692.00 L 723.20 693.80 L 721.20 696.50 L 720.50 698.10 L 720.10 699.80 L 720.20 703.20 L 721.40 706.40 L 722.40 707.80 L 764.90 757.40 L 765.10 758.00 L 759.90 823.10 L 760.20 826.50 L 761.60 829.60 L 764.00 832.00 L 765.50 832.90 L 768.80 833.90 L 772.10 833.70 L 834.10 808.10 L 834.70 808.10 L 896.70 833.70 L 900.10 833.90 L 903.30 832.90 L 904.80 832.00 L 907.20 829.60 L 908.60 826.50 L 908.90 823.10 L 903.70 758.00 L 903.90 757.40 L 946.40 707.80 L 948.10 704.80 L 948.80 701.50 L 948.70 699.80 L 948.30 698.10 L 946.70 695.10 L 944.20 692.80 L 942.70 692.00 L 877.60 676.30 L 877.00 675.90 Z" fill="#ffd677" fill-rule="nonzero" group-id="11,34" id="路径_1759" node-id="296" stroke="none" target-height="218.5" target-width="228.70001" target-x="720.1" target-y="615.4"></path><path d="M 834.50 615.40 L 834.50 735.00 L 877.70 676.30 L 877.00 675.90 L 843.00 620.20 L 842.00 618.80 L 839.40 616.70 L 836.20 615.50 L 834.50 615.40 Z" fill="#ffd677" fill-rule="nonzero" group-id="11,35" id="路径_1760" node-id="297" stroke="none" target-height="119.599976" target-width="43.200012" target-x="834.5" target-y="615.4"></path><path d="M 903.90 757.40 L 946.40 707.80 L 947.70 705.80 L 948.60 703.50 L 948.80 701.10 L 948.50 698.60 L 834.50 735.00 Z" fill="#ffe387" fill-rule="nonzero" group-id="11,36" id="路径_1761" node-id="298" stroke="none" target-height="58.80005" target-width="114.29999" target-x="834.5" target-y="698.6"></path><path d="M 904.70 832.10 L 906.10 830.90 L 908.00 828.10 L 908.90 824.80 L 908.90 823.10 L 903.70 758.00 L 903.90 757.40 L 834.50 735.00 Z" fill="#ffbf51" fill-rule="nonzero" group-id="11,37" id="路径_1762" node-id="299" stroke="none" target-height="97.099976" target-width="74.400024" target-x="834.5" target-y="735"></path><path d="M 834.30 808.10 L 895.00 833.20 L 897.50 833.90 L 900.00 833.90 L 902.40 833.30 L 904.70 832.10 L 834.50 735.00 Z" fill="#ffc97d" fill-rule="nonzero" group-id="11,38" id="路径_1763" node-id="300" stroke="none" target-height="98.900024" target-width="70.400024" target-x="834.3" target-y="735"></path><path d="M 764.20 832.10 L 766.40 833.30 L 768.90 833.90 L 771.40 833.90 L 773.80 833.20 L 834.30 808.10 L 834.50 735.00 Z" fill="#ffab5b" fill-rule="nonzero" group-id="11,39" id="路径_1764" node-id="301" stroke="none" target-height="98.900024" target-width="70.29999" target-x="764.2" target-y="735"></path><path d="M 765.10 757.70 L 759.90 823.10 L 759.90 824.80 L 760.80 828.10 L 762.70 830.90 L 764.00 832.00 L 834.50 735.00 Z" fill="#ffc76d" fill-rule="nonzero" group-id="11,40" id="路径_1765" node-id="302" stroke="none" target-height="97" target-width="74.599976" target-x="759.9" target-y="735"></path><path d="M 720.60 697.80 L 720.10 699.50 L 720.20 703.00 L 721.40 706.30 L 722.40 707.80 L 765.10 757.70 L 834.50 735.00 Z" fill="#ffbe51" fill-rule="nonzero" group-id="11,41" id="路径_1766" node-id="303" stroke="none" target-height="59.900024" target-width="114.400024" target-x="720.1" target-y="697.8"></path><path d="M 791.70 676.00 L 727.80 691.40 L 725.40 692.30 L 723.40 693.70 L 721.80 695.50 L 720.60 697.80 L 834.50 735.00 Z" fill="#ffd684" fill-rule="nonzero" group-id="11,42" id="路径_1767" node-id="304" stroke="none" target-height="59" target-width="113.900024" target-x="720.6" target-y="676"></path><path d="M 791.70 676.00 L 834.50 735.00 L 834.50 615.40 L 832.70 615.50 L 829.50 616.60 L 826.80 618.80 L 825.80 620.20 L 791.70 676.00 Z" fill="#ffab5b" fill-rule="nonzero" group-id="11,43" id="路径_1768" node-id="305" stroke="none" target-height="119.599976" target-width="42.799988" target-x="791.7" target-y="615.4"></path><path d="M 948.50 698.70 L 947.80 696.90 L 945.80 694.00 L 942.80 692.00 L 941.10 691.40 L 877.70 676.30 L 834.50 735.00 Z" fill="#fff9e7" fill-rule="nonzero" group-id="11,44" id="路径_1769" node-id="306" stroke="none" target-height="58.700012" target-width="114" target-x="834.5" target-y="676.3"></path><path d="M 856.50 895.40 L 856.20 896.90 L 855.30 898.60 L 853.80 900.30 L 851.20 902.30 L 847.40 904.40 L 843.00 906.30 L 830.20 910.40 L 810.10 915.10 L 796.70 917.50 L 780.80 919.90 L 747.20 924.10 L 727.50 926.00 L 697.30 928.50 L 663.50 930.70 L 628.70 932.40 L 591.00 933.60 L 552.50 934.40 L 512.00 934.70 L 471.50 934.40 L 433.00 933.60 L 395.30 932.40 L 360.50 930.70 L 326.70 928.50 L 296.50 926.00 L 276.80 924.10 L 243.20 919.90 L 227.30 917.50 L 202.50 912.60 L 186.70 908.30 L 176.60 904.40 L 172.80 902.30 L 170.20 900.30 L 168.70 898.60 L 167.80 896.90 L 167.50 895.40 L 167.80 893.80 L 168.70 892.10 L 170.20 890.40 L 172.80 888.40 L 176.60 886.30 L 186.70 882.40 L 202.50 878.10 L 213.90 875.60 L 227.30 873.20 L 259.10 868.70 L 296.50 864.70 L 326.70 862.20 L 360.50 860.00 L 395.30 858.40 L 433.00 857.10 L 471.50 856.30 L 512.00 856.00 L 552.50 856.30 L 591.00 857.10 L 628.70 858.40 L 663.50 860.00 L 697.30 862.20 L 727.50 864.70 L 747.20 866.60 L 780.80 870.80 L 796.70 873.20 L 810.10 875.60 L 830.20 880.30 L 843.00 884.40 L 847.40 886.30 L 851.20 888.40 L 853.80 890.40 L 855.30 892.10 L 856.20 893.80 L 856.50 895.40 Z" fill="url(#radial-gradient)" fill-rule="nonzero" group-id="12" id="椭圆_739" node-id="307" stroke="none" target-height="78.70001" target-width="689" target-x="167.5" target-y="856"></path></g></svg>